{"asset":{"version":"2.0","generator":"babylon.js glTF exporter for 3dsmax 2020 v20220401.2"},"extensionsUsed":["KHR_materials_unlit"],"scene":0,"scenes":[{"nodes":[0,18]}],"nodes":[{"children":[1,7],"translation":[0.0308702,0.0297251809,-0.00141943456],"name":"jf_txxk_001"},{"children":[2,3,4,5,6],"translation":[0.000604300469,0.0297251865,0.00115229364],"name":"jf_tx_fqpz"},{"mesh":0,"translation":[-0.105173722,0.0,-0.00115230086],"name":"Jf_Jg_fqpz_001"},{"mesh":1,"translation":[-0.0281784032,0.0,-0.0396103263],"name":"Jf_Jg_fqpz_002"},{"mesh":2,"translation":[-0.0281784032,0.0,0.0204437077],"name":"Jf_Jg_fqpz_003"},{"mesh":3,"translation":[0.0592979938,0.0,-0.00115230086],"name":"Jf_Jg_fqpz_004"},{"mesh":4,"translation":[0.105173722,0.0,0.0396103226],"name":"Jf_Jg_fqpz_005"},{"children":[8,9,10,11,12,13,14,15,16,17],"translation":[0.0,-5.33676139E-05,0.0],"name":"jf_tx_fenqu_002"},{"mesh":5,"translation":[-0.0308702,-0.0296718143,0.00141943456],"name":"bgq_001"},{"mesh":6,"translation":[-0.0308702,-0.0296718143,0.00141943456],"name":"bgq_002"},{"mesh":7,"translation":[-0.0308702,-0.0296718143,0.00141943456],"name":"dlj_001"},{"mesh":8,"translation":[-0.0308702,-0.0296718143,0.00141943456],"name":"dlj_002"},{"mesh":9,"translation":[-0.0308702,-0.0296718143,0.00141943456],"name":"jgq_001"},{"mesh":10,"translation":[-0.0308702,-0.0296718143,0.00141943456],"name":"jgq_002"},{"mesh":11,"translation":[-0.0308702,-0.0296718143,0.00141943456],"name":"lqq_001"},{"mesh":12,"translation":[-0.0308702,-0.0296718143,0.00141943456],"name":"lqq_002"},{"mesh":13,"translation":[-0.0308702,-0.0296718143,0.00141943456],"name":"rk_001"},{"mesh":14,"translation":[-0.0308702,-0.0296718143,0.00141943456],"name":"rk_002"},{"name":"Default light"}],"meshes":[{"primitives":[{"attributes":{"POSITION":1,"TANGENT":2,"NORMAL":3,"TEXCOORD_0":4},"indices":0,"material":0}],"name":"Jf_Jg_fqpz_001"},{"primitives":[{"attributes":{"POSITION":6,"TANGENT":7,"NORMAL":8,"TEXCOORD_0":9},"indices":5,"material":1}],"name":"Jf_Jg_fqpz_002"},{"primitives":[{"attributes":{"POSITION":11,"TANGENT":12,"NORMAL":13,"TEXCOORD_0":14},"indices":10,"material":2}],"name":"Jf_Jg_fqpz_003"},{"primitives":[{"attributes":{"POSITION":16,"TANGENT":17,"NORMAL":18,"TEXCOORD_0":19},"indices":15,"material":3}],"name":"Jf_Jg_fqpz_004"},{"primitives":[{"attributes":{"POSITION":21,"TANGENT":22,"NORMAL":23,"TEXCOORD_0":24},"indices":20,"material":4}],"name":"Jf_Jg_fqpz_005"},{"primitives":[{"attributes":{"POSITION":26,"TANGENT":27,"NORMAL":28,"TEXCOORD_0":29},"indices":25,"material":5}],"name":"bgq_001"},{"primitives":[{"attributes":{"POSITION":31,"TANGENT":32,"NORMAL":33,"TEXCOORD_0":34},"indices":30,"material":5}],"name":"bgq_002"},{"primitives":[{"attributes":{"POSITION":36,"TANGENT":37,"NORMAL":38,"TEXCOORD_0":39},"indices":35,"material":5}],"name":"dlj_001"},{"primitives":[{"attributes":{"POSITION":41,"TANGENT":42,"NORMAL":43,"TEXCOORD_0":44},"indices":40,"material":5}],"name":"dlj_002"},{"primitives":[{"attributes":{"POSITION":46,"TANGENT":47,"NORMAL":48,"TEXCOORD_0":49},"indices":45,"material":5}],"name":"jgq_001"},{"primitives":[{"attributes":{"POSITION":51,"TANGENT":52,"NORMAL":53,"TEXCOORD_0":54},"indices":50,"material":5}],"name":"jgq_002"},{"primitives":[{"attributes":{"POSITION":56,"TANGENT":57,"NORMAL":58,"TEXCOORD_0":59},"indices":55,"material":5}],"name":"lqq_001"},{"primitives":[{"attributes":{"POSITION":61,"TANGENT":62,"NORMAL":63,"TEXCOORD_0":64},"indices":60,"material":5}],"name":"lqq_002"},{"primitives":[{"attributes":{"POSITION":66,"TANGENT":67,"NORMAL":68,"TEXCOORD_0":69},"indices":65,"material":6}],"name":"rk_001"},{"primitives":[{"attributes":{"POSITION":71,"TANGENT":72,"NORMAL":73,"TEXCOORD_0":74},"indices":70,"material":6}],"name":"rk_002"}],"accessors":[{"bufferView":0,"componentType":5123,"count":6,"type":"SCALAR","name":"accessorIndices"},{"bufferView":1,"componentType":5126,"count":4,"max":[0.00959999952,0.0,0.00349],"min":[-0.00959999952,0.0,-0.00349],"type":"VEC3","name":"accessorPositions"},{"bufferView":2,"componentType":5126,"count":4,"type":"VEC4","name":"accessorTangents"},{"bufferView":1,"byteOffset":48,"componentType":5126,"count":4,"type":"VEC3","name":"accessorNormals"},{"bufferView":3,"componentType":5126,"count":4,"type":"VEC2","name":"accessorUVs"},{"bufferView":0,"byteOffset":12,"componentType":5123,"count":6,"type":"SCALAR","name":"accessorIndices"},{"bufferView":1,"byteOffset":96,"componentType":5126,"count":4,"max":[0.00959999952,0.0,0.00349],"min":[-0.00959999952,0.0,-0.00349],"type":"VEC3","name":"accessorPositions"},{"bufferView":2,"byteOffset":64,"componentType":5126,"count":4,"type":"VEC4","name":"accessorTangents"},{"bufferView":1,"byteOffset":144,"componentType":5126,"count":4,"type":"VEC3","name":"accessorNormals"},{"bufferView":3,"byteOffset":32,"componentType":5126,"count":4,"type":"VEC2","name":"accessorUVs"},{"bufferView":0,"byteOffset":24,"componentType":5123,"count":6,"type":"SCALAR","name":"accessorIndices"},{"bufferView":1,"byteOffset":192,"componentType":5126,"count":4,"max":[0.00959999952,0.0,0.00349],"min":[-0.00959999952,0.0,-0.00349],"type":"VEC3","name":"accessorPositions"},{"bufferView":2,"byteOffset":128,"componentType":5126,"count":4,"type":"VEC4","name":"accessorTangents"},{"bufferView":1,"byteOffset":240,"componentType":5126,"count":4,"type":"VEC3","name":"accessorNormals"},{"bufferView":3,"byteOffset":64,"componentType":5126,"count":4,"type":"VEC2","name":"accessorUVs"},{"bufferView":0,"byteOffset":36,"componentType":5123,"count":6,"type":"SCALAR","name":"accessorIndices"},{"bufferView":1,"byteOffset":288,"componentType":5126,"count":4,"max":[0.00959999952,0.0,0.003485],"min":[-0.00959999952,0.0,-0.003485],"type":"VEC3","name":"accessorPositions"},{"bufferView":2,"byteOffset":192,"componentType":5126,"count":4,"type":"VEC4","name":"accessorTangents"},{"bufferView":1,"byteOffset":336,"componentType":5126,"count":4,"type":"VEC3","name":"accessorNormals"},{"bufferView":3,"byteOffset":96,"componentType":5126,"count":4,"type":"VEC2","name":"accessorUVs"},{"bufferView":0,"byteOffset":48,"componentType":5123,"count":6,"type":"SCALAR","name":"accessorIndices"},{"bufferView":1,"byteOffset":384,"componentType":5126,"count":4,"max":[0.00959999952,0.0,0.00349],"min":[-0.00959999952,0.0,-0.00349],"type":"VEC3","name":"accessorPositions"},{"bufferView":2,"byteOffset":256,"componentType":5126,"count":4,"type":"VEC4","name":"accessorTangents"},{"bufferView":1,"byteOffset":432,"componentType":5126,"count":4,"type":"VEC3","name":"accessorNormals"},{"bufferView":3,"byteOffset":128,"componentType":5126,"count":4,"type":"VEC2","name":"accessorUVs"},{"bufferView":0,"byteOffset":60,"componentType":5123,"count":30,"type":"SCALAR","name":"accessorIndices"},{"bufferView":1,"byteOffset":480,"componentType":5126,"count":30,"max":[0.1169572,0.05929999,0.05596054],"min":[0.06458777,0.0,-0.05879941],"type":"VEC3","name":"accessorPositions"},{"bufferView":2,"byteOffset":320,"componentType":5126,"count":30,"type":"VEC4","name":"accessorTangents"},{"bufferView":1,"byteOffset":840,"componentType":5126,"count":30,"type":"VEC3","name":"accessorNormals"},{"bufferView":3,"byteOffset":160,"componentType":5126,"count":30,"type":"VEC2","name":"accessorUVs"},{"bufferView":0,"byteOffset":120,"componentType":5123,"count":6,"type":"SCALAR","name":"accessorIndices"},{"bufferView":1,"byteOffset":1200,"componentType":5126,"count":6,"max":[0.1169572,0.0593436174,0.05596053],"min":[0.06458777,0.0593436174,-0.0587994121],"type":"VEC3","name":"accessorPositions"},{"bufferView":2,"byteOffset":800,"componentType":5126,"count":6,"type":"VEC4","name":"accessorTangents"},{"bufferView":1,"byteOffset":1272,"componentType":5126,"count":6,"type":"VEC3","name":"accessorNormals"},{"bufferView":3,"byteOffset":400,"componentType":5126,"count":6,"type":"VEC2","name":"accessorUVs"},{"bufferView":0,"byteOffset":132,"componentType":5123,"count":30,"type":"SCALAR","name":"accessorIndices"},{"bufferView":1,"byteOffset":1344,"componentType":5126,"count":30,"max":[-0.0579915941,0.0592999868,0.05596056],"min":[-0.08940685,0.0,-0.05879942],"type":"VEC3","name":"accessorPositions"},{"bufferView":2,"byteOffset":896,"componentType":5126,"count":30,"type":"VEC4","name":"accessorTangents"},{"bufferView":1,"byteOffset":1704,"componentType":5126,"count":30,"type":"VEC3","name":"accessorNormals"},{"bufferView":3,"byteOffset":448,"componentType":5126,"count":30,"type":"VEC2","name":"accessorUVs"},{"bufferView":0,"byteOffset":192,"componentType":5123,"count":6,"type":"SCALAR","name":"accessorIndices"},{"bufferView":1,"byteOffset":2064,"componentType":5126,"count":6,"max":[-0.0579915941,0.0593436174,0.05596052],"min":[-0.08940685,0.0593436174,-0.058799427],"type":"VEC3","name":"accessorPositions"},{"bufferView":2,"byteOffset":1376,"componentType":5126,"count":6,"type":"VEC4","name":"accessorTangents"},{"bufferView":1,"byteOffset":2136,"componentType":5126,"count":6,"type":"VEC3","name":"accessorNormals"},{"bufferView":3,"byteOffset":688,"componentType":5126,"count":6,"type":"VEC2","name":"accessorUVs"},{"bufferView":0,"byteOffset":204,"componentType":5123,"count":30,"type":"SCALAR","name":"accessorIndices"},{"bufferView":1,"byteOffset":2208,"componentType":5126,"count":30,"max":[0.0595525242,0.05929999,0.05596054],"min":[-0.0529603437,0.0,-0.015607385],"type":"VEC3","name":"accessorPositions"},{"bufferView":2,"byteOffset":1472,"componentType":5126,"count":30,"type":"VEC4","name":"accessorTangents"},{"bufferView":1,"byteOffset":2568,"componentType":5126,"count":30,"type":"VEC3","name":"accessorNormals"},{"bufferView":3,"byteOffset":736,"componentType":5126,"count":30,"type":"VEC2","name":"accessorUVs"},{"bufferView":0,"byteOffset":264,"componentType":5123,"count":6,"type":"SCALAR","name":"accessorIndices"},{"bufferView":1,"byteOffset":2928,"componentType":5126,"count":6,"max":[0.0595525242,0.05934362,0.05596053],"min":[-0.0529603325,0.0593436174,-0.015607385],"type":"VEC3","name":"accessorPositions"},{"bufferView":2,"byteOffset":1952,"componentType":5126,"count":6,"type":"VEC4","name":"accessorTangents"},{"bufferView":1,"byteOffset":3000,"componentType":5126,"count":6,"type":"VEC3","name":"accessorNormals"},{"bufferView":3,"byteOffset":976,"componentType":5126,"count":6,"type":"VEC2","name":"accessorUVs"},{"bufferView":0,"byteOffset":276,"componentType":5123,"count":30,"type":"SCALAR","name":"accessorIndices"},{"bufferView":1,"byteOffset":3072,"componentType":5126,"count":30,"max":[0.0595525242,0.0593,-0.0209555142],"min":[-0.0529603325,0.0,-0.05879942],"type":"VEC3","name":"accessorPositions"},{"bufferView":2,"byteOffset":2048,"componentType":5126,"count":30,"type":"VEC4","name":"accessorTangents"},{"bufferView":1,"byteOffset":3432,"componentType":5126,"count":30,"type":"VEC3","name":"accessorNormals"},{"bufferView":3,"byteOffset":1024,"componentType":5126,"count":30,"type":"VEC2","name":"accessorUVs"},{"bufferView":0,"byteOffset":336,"componentType":5123,"count":6,"type":"SCALAR","name":"accessorIndices"},{"bufferView":1,"byteOffset":3792,"componentType":5126,"count":6,"max":[0.0595525242,0.05934363,-0.0209555142],"min":[-0.0529603325,0.05934362,-0.05879942],"type":"VEC3","name":"accessorPositions"},{"bufferView":2,"byteOffset":2528,"componentType":5126,"count":6,"type":"VEC4","name":"accessorTangents"},{"bufferView":1,"byteOffset":3864,"componentType":5126,"count":6,"type":"VEC3","name":"accessorNormals"},{"bufferView":3,"byteOffset":1264,"componentType":5126,"count":6,"type":"VEC2","name":"accessorUVs"},{"bufferView":0,"byteOffset":348,"componentType":5123,"count":30,"type":"SCALAR","name":"accessorIndices"},{"bufferView":1,"byteOffset":3936,"componentType":5126,"count":30,"max":[0.151147246,0.05929999,0.05596054],"min":[0.1221492,0.0,-0.05879941],"type":"VEC3","name":"accessorPositions"},{"bufferView":2,"byteOffset":2624,"componentType":5126,"count":30,"type":"VEC4","name":"accessorTangents"},{"bufferView":1,"byteOffset":4296,"componentType":5126,"count":30,"type":"VEC3","name":"accessorNormals"},{"bufferView":3,"byteOffset":1312,"componentType":5126,"count":30,"type":"VEC2","name":"accessorUVs"},{"bufferView":0,"byteOffset":408,"componentType":5123,"count":6,"type":"SCALAR","name":"accessorIndices"},{"bufferView":1,"byteOffset":4656,"componentType":5126,"count":6,"max":[0.151147246,0.0593436174,0.05596053],"min":[0.1221492,0.0593436174,-0.0587994121],"type":"VEC3","name":"accessorPositions"},{"bufferView":2,"byteOffset":3104,"componentType":5126,"count":6,"type":"VEC4","name":"accessorTangents"},{"bufferView":1,"byteOffset":4728,"componentType":5126,"count":6,"type":"VEC3","name":"accessorNormals"},{"bufferView":3,"byteOffset":1552,"componentType":5126,"count":6,"type":"VEC2","name":"accessorUVs"}],"bufferViews":[{"buffer":0,"byteLength":420,"name":"bufferViewScalar"},{"buffer":0,"byteOffset":420,"byteLength":4800,"byteStride":12,"name":"bufferViewFloatVec3"},{"buffer":0,"byteOffset":5220,"byteLength":3200,"byteStride":16,"name":"bufferViewFloatVec4"},{"buffer":0,"byteOffset":8420,"byteLength":1600,"byteStride":8,"name":"bufferViewFloatVec2"}],"buffers":[{"uri":"dgjg_0517_z.bin","byteLength":10020}],"materials":[{"pbrMetallicRoughness":{"baseColorTexture":{"index":0},"metallicFactor":0.0,"roughnessFactor":0.450053632},"emissiveTexture":{"index":0},"emissiveFactor":[1.0,1.0,1.0],"alphaMode":"BLEND","name":"tt_dlj","extensions":{"KHR_materials_unlit":{}}},{"pbrMetallicRoughness":{"baseColorTexture":{"index":1},"metallicFactor":0.0,"roughnessFactor":0.450053632},"emissiveTexture":{"index":1},"emissiveFactor":[1.0,1.0,1.0],"alphaMode":"BLEND","name":"tt_lqq","extensions":{"KHR_materials_unlit":{}}},{"pbrMetallicRoughness":{"baseColorTexture":{"index":2},"metallicFactor":0.0,"roughnessFactor":0.450053632},"emissiveTexture":{"index":2},"emissiveFactor":[1.0,1.0,1.0],"alphaMode":"BLEND","name":"tt_jgq","extensions":{"KHR_materials_unlit":{}}},{"pbrMetallicRoughness":{"baseColorTexture":{"index":3},"metallicFactor":0.0,"roughnessFactor":0.450053632},"emissiveTexture":{"index":3},"emissiveFactor":[1.0,1.0,1.0],"alphaMode":"BLEND","name":"Material #1","extensions":{"KHR_materials_unlit":{}}},{"pbrMetallicRoughness":{"baseColorTexture":{"index":4},"metallicFactor":0.0,"roughnessFactor":0.450053632},"emissiveTexture":{"index":4},"emissiveFactor":[1.0,1.0,1.0],"alphaMode":"BLEND","name":"tt_rk","extensions":{"KHR_materials_unlit":{}}},{"pbrMetallicRoughness":{"baseColorFactor":[0.0,0.08235294,0.235294119,0.149999976],"metallicFactor":0.0,"roughnessFactor":0.450053632},"emissiveFactor":[0.0,0.08235294,0.235294119],"alphaMode":"BLEND","name":"jf_ywq_blue","extensions":{"KHR_materials_unlit":{}}},{"pbrMetallicRoughness":{"baseColorFactor":[1.0,1.0,1.0,0.149999976],"metallicFactor":0.0,"roughnessFactor":0.450053632},"emissiveFactor":[1.0,1.0,1.0],"alphaMode":"BLEND","name":"jf_rk_white","extensions":{"KHR_materials_unlit":{}}}],"textures":[{"sampler":0,"source":0,"name":"机房牌子_画板 1 副本 3.png"},{"sampler":0,"source":1,"name":"机房牌子_画板 1 副本.png"},{"sampler":0,"source":2,"name":"机房牌子_画板 1.png"},{"sampler":0,"source":3,"name":"机房牌子_画板 1 副本 2.png"},{"sampler":0,"source":4,"name":"机房牌子_画板 1 副本 4.png"}],"images":[{"uri":"机房牌子_画板 1 副本 3.png"},{"uri":"机房牌子_画板 1 副本.png"},{"uri":"机房牌子_画板 1.png"},{"uri":"机房牌子_画板 1 副本 2.png"},{"uri":"机房牌子_画板 1 副本 4.png"}],"samplers":[{"magFilter":9729,"minFilter":9987}]}