<?xml version="1.0" encoding="UTF-8"?>
<svg width="53px" height="36px" viewBox="0 0 53 36" version="1.1" xmlns="http://www.w3.org/2000/svg" xmlns:xlink="http://www.w3.org/1999/xlink">
    <!-- Generator: Sketch 64 (93537) - https://sketch.com -->
    <title>视频流</title>
    <desc>Created with Sketch.</desc>
    <g id="页面-1" stroke="none" stroke-width="1" fill="none" fill-rule="evenodd">
        <path d="M35,0 C37.209139,-4.05812251e-16 39,1.790861 39,4 L39,32 C39,34.209139 37.209139,36 35,36 L4,36 C1.790861,36 -1.06172613e-15,34.209139 0,32 L0,4 C-2.705415e-16,1.790861 1.790861,4.05812251e-16 4,0 L35,0 Z M52.0230301,4 C52.5625957,4 53,4.43740434 53,4.97696993 L53,30.0206531 C53,30.5615314 52.5615314,31 52.0206531,31 L51.3972347,31 C51.1670228,31 50.9438608,30.9205703 50.7654192,30.7751188 L40.3681844,22.3001149 C40.1352022,22.1102061 40,21.8255723 40,21.5249961 L40,13.4751331 C40,13.174483 40.1352683,12.8897874 40.3683479,12.6998812 L50.7702178,4.22474806 C50.948634,4.07937987 51.1717304,4 51.40187,4 L52.0230301,4 Z M10,7 C7.790861,7 6,8.790861 6,11 C6,13.209139 7.790861,15 10,15 C12.209139,15 14,13.209139 14,11 C14,8.790861 12.209139,7 10,7 Z" id="视频流" fill="#FFFFFF"></path>
    </g>
</svg>