<svg xmlns="http://www.w3.org/2000/svg" xmlns:xlink="http://www.w3.org/1999/xlink" fill="none" version="1.1" width="849" height="640" viewBox="0 0 849 640"><defs><linearGradient x1="0.5" y1="0" x2="0.5" y2="1" id="master_svg0_22_11302"><stop offset="0%" stop-color="#33FFF5" stop-opacity="1"/><stop offset="100%" stop-color="#2596CE" stop-opacity="1"/></linearGradient></defs><g style="mix-blend-mode:passthrough"><g><g style="mix-blend-mode:passthrough"><rect x="0" y="108" width="849" height="162" rx="4" fill="#D8D8D8" fill-opacity="0.20000000298023224"/></g><g style="mix-blend-mode:passthrough"><rect x="0" y="283" width="849" height="357" rx="4" fill="#D8D8D8" fill-opacity="0.20000000298023224"/></g><g style="mix-blend-mode:passthrough"><path d="M849.0000000000005,91L1555.5,91L1469.193,182L869,182C857.95431,182,849.0000000000005,173.0457,849.0000000000005,162L849.0000000000005,91Z" fill-rule="evenodd" transform="matrix(-1,0,0,-1,1698,182)" fill="#E7ECF2" fill-opacity="1"/></g><g style="mix-blend-mode:passthrough"><path d="M0,0L566,0L485.044,91L20,91C8.95431,91,0,82.0457,0,71L0,0Z" fill-rule="evenodd" fill="url(#master_svg0_22_11302)" fill-opacity="1"/></g><g style="mix-blend-mode:passthrough"><g><g style="mix-blend-mode:passthrough"><rect x="22.25" y="561.25" width="804.5" height="66.5" rx="0.75" fill-opacity="0" stroke-opacity="0.4000000059604645" stroke="#DDE6F1" stroke-width="2.5" fill="none" stroke-dasharray=""/></g><g style="mix-blend-mode:passthrough"><rect x="25" y="564" width="799" height="61" rx="1" fill="#E7ECF2" fill-opacity="1"/></g></g></g><g style="mix-blend-mode:passthrough"><g><g style="mix-blend-mode:passthrough"><path d="M22 107C22 107 22 107 22 107L828 107C828 107 828 107 828 107L828 228C828 246.77768149424696 812.777681494247 262 794 262L56 262C37.22231850575302 262 22 246.77768149424696 22 228Z" fill="#E7ECF2" fill-opacity="1"/></g></g></g><g style="mix-blend-mode:passthrough"><ellipse cx="795" cy="49" rx="8" ry="8" fill="#0AFFEB" fill-opacity="1"/></g><g style="mix-blend-mode:passthrough"></g><g style="mix-blend-mode:passthrough"></g><g style="mix-blend-mode:passthrough"><g><g style="mix-blend-mode:passthrough"><rect x="22.25" y="297.25" width="804.5" height="66.5" rx="0.75" fill-opacity="0" stroke-opacity="0.4000000059604645" stroke="#DDE6F1" stroke-width="2.5" fill="none" stroke-dasharray=""/></g><g style="mix-blend-mode:passthrough"><rect x="25" y="300" width="799" height="61" rx="1" fill="#E7ECF2" fill-opacity="1"/></g></g></g><g style="mix-blend-mode:passthrough"><g><g style="mix-blend-mode:passthrough"><rect x="22.25" y="386.25" width="804.5" height="66.5" rx="0.75" fill-opacity="0" stroke-opacity="0.4000000059604645" stroke="#DDE6F1" stroke-width="2.5" fill="none" stroke-dasharray=""/></g><g style="mix-blend-mode:passthrough"><rect x="25" y="389" width="799" height="61" rx="1" fill="#E7ECF2" fill-opacity="1"/></g></g></g><g style="mix-blend-mode:passthrough"><g><g style="mix-blend-mode:passthrough"><rect x="22.25" y="474.25" width="804.5" height="66.5" rx="0.75" fill-opacity="0" stroke-opacity="0.4000000059604645" stroke="#DDE6F1" stroke-width="2.5" fill="none" stroke-dasharray=""/></g><g style="mix-blend-mode:passthrough"><rect x="25" y="477" width="799" height="61" rx="1" fill="#E7ECF2" fill-opacity="1"/></g></g></g></g></g></svg>