<svg xmlns="http://www.w3.org/2000/svg" xmlns:xlink="http://www.w3.org/1999/xlink" fill="none" version="1.1" width="334" height="84" viewBox="0 0 334 84"><defs><linearGradient x1="0.5" y1="0" x2="0.5" y2="1" id="master_svg0_22_11404"><stop offset="0%" stop-color="#EC9736" stop-opacity="1"/><stop offset="100%" stop-color="#D2AE1D" stop-opacity="1"/></linearGradient><linearGradient x1="0.5" y1="0" x2="0.5" y2="1" id="master_svg1_22_11404"><stop offset="0%" stop-color="#EC9736" stop-opacity="1"/><stop offset="100%" stop-color="#D2AE1D" stop-opacity="1"/></linearGradient></defs><g style="mix-blend-mode:passthrough"><g><g style="mix-blend-mode:passthrough"><rect x="0" y="0" width="334" height="84" rx="4" fill="#FFFFFF" fill-opacity="0.20000000298023224"/></g><g style="mix-blend-mode:passthrough"><ellipse cx="8" cy="7" rx="3" ry="3" fill="#FFFF00" fill-opacity="1"/></g><g style="mix-blend-mode:passthrough"><ellipse cx="329" cy="77" rx="3" ry="3" fill="#FFFF00" fill-opacity="1"/></g><path d="M132.663507,7.0693359375L138.14319,7.0693359375L160.9512,40.5492359375C161.5596,41.4419359375,161.5717,42.5818359375,160.9823,43.4857359375L138.1121,76.9537359375L132,76.9537359375L155.513,43.5602359375C156.0975,42.6578359375,156.0841,41.5224359375,155.4784,40.6324359375L132.663507,7.0693359375Z" fill="url(#master_svg0_22_11404)" fill-opacity="1"/><path d="M148.374,38.700199999999995L128.644,9.98068C127.384,8.1311,125.177,7.00537127,122.8,7L27.865,7C16.894,7,8,15.49629,8,25.9779L8,77L31.9602,76.9145C31.9943,70.4587,35.9916,65.2396,40.919,65.2396L88.5423,65.2396C93.4095,65.2396,97.3702,70.3332,97.5011,76.6808L122.932,76.5943C125.018,76.581,126.957,75.6051,128.09,73.9977L148.318,45.5746C149.794,43.489,149.816,40.8061,148.374,38.700199999999995Z" fill="url(#master_svg1_22_11404)" fill-opacity="1"/><path d="M36,76.87627125C36,71.80029125,39.53064,67.67578125,43.8849,67.67578125L85.7941,67.67578125C90.1483,67.67578125,93.679,71.79489125,93.679,76.87627125L36,76.87627125Z" fill="#FFFFFF" fill-opacity="1"/><path d="M145.427734375,7L167.210934375,39.336C168.273534375,40.9667,168.273534375,43.0289,167.210934375,44.6596L145.432280055,76.8542L308.86873437500003,76.9988C320.234734375,77.1068,328.999734375,69.72970000000001,328.999734375,58.9377L328.999734375,7L145.427734375,7Z" fill="#FFFFFF" fill-opacity="0.800000011920929"/></g></g></svg>