<?xml version="1.0" encoding="UTF-8"?>
<svg width="18px" height="34px" viewBox="0 0 18 34" version="1.1" xmlns="http://www.w3.org/2000/svg" xmlns:xlink="http://www.w3.org/1999/xlink">
    <!-- Generator: Sketch 64 (93537) - https://sketch.com -->
    <title>温度</title>
    <desc>Created with Sketch.</desc>
    <g id="页面-1" stroke="none" stroke-width="1" fill="none" fill-rule="evenodd">
        <path d="M8.96920989,2.13162821e-14 C12.0355638,0.000353803375 14.5211472,2.48622402 14.5211472,5.55257798 L14.5211472,5.55257798 L14.5211472,17.3003133 L14.6825929,17.4303668 C16.6835303,19.0814126 17.870108,21.5190738 17.9352107,24.1124238 L17.9352107,24.1124238 L17.938414,24.3449825 C17.938414,29.2985457 13.9227731,33.3141866 8.96920989,33.3141866 C4.01564664,33.3141866 2.90832421e-06,29.2985458 2.90832421e-06,24.3449825 C-0.00215093123,21.6694695 1.19210718,19.1331397 3.25582691,17.4303668 L3.25582691,17.4303668 L3.41663191,17.3003133 L3.41663191,5.55257798 C3.41666628,2.55085797 5.80226993,0.0926107348 8.80263897,0.00256260471 L8.80263897,0.00256260471 Z M8.96920989,2.56262971 C8.17622631,2.56262971 7.41572127,2.87764122 6.85499721,3.43836529 C6.29427314,3.99908936 5.97926165,4.7595944 5.97926166,5.55257798 L5.97926166,5.55257798 L5.979,7.545 L7.54502842,7.54566326 C8.25379485,7.54566326 8.63180361,7.87642093 8.6790547,8.53793626 L8.68411732,8.68475217 C8.68411732,9.44414477 8.30442102,9.82384107 7.54502842,9.82384107 L5.979,9.823 L5.979,12.67 L7.54502842,12.6709227 C8.25379485,12.6709227 8.63180361,13.0016804 8.6790547,13.6631957 L8.68411732,13.8100116 C8.68411732,14.5694042 8.30442102,14.9491006 7.54502842,14.9491006 L5.979,14.949 L5.97926166,17.9518619 C5.97931956,18.3318605 5.81091724,18.6896353 5.52403532,18.9315362 L5.41099849,19.0166346 C3.64406527,20.1999289 2.56263554,22.1795604 2.56263554,24.3449825 C2.56263554,27.8833335 5.43085888,30.7515568 8.96920989,30.7515568 C12.5075609,30.7515568 15.3757869,27.8833335 15.3757869,24.3449825 C15.3777388,22.2039687 14.3086809,20.2038735 12.5274213,19.015994 C12.1722353,18.7780912 11.959093,18.3787196 11.9591581,17.9512213 L11.9591581,17.9512213 L11.9591581,5.55257798 C11.9591581,4.7595944 11.6441466,3.99908936 11.0834226,3.43836529 C10.5226985,2.87764122 9.76219347,2.56262971 8.96920989,2.56262971 Z M5.76592273,22.4230101 C6.10742015,22.4230101 6.43479244,22.5593142 6.67536375,22.8016898 C6.91593506,23.0440654 7.04979882,23.3724471 7.04723759,23.7139349 L7.05044086,23.8292532 C7.11693125,25.1157449 8.17943268,26.1247411 9.46764139,26.1247288 L9.46764139,28.6873586 L9.30939899,28.684796 C6.62032821,28.5993581 4.48460784,26.3947528 4.48460784,23.704325 L4.48781115,23.6082264 C4.53810072,22.939587 5.0953948,22.422798 5.76592273,22.4230101 Z" id="形状结合" fill="#FCFCFD" fill-rule="nonzero" transform="translate(8.969207, 16.657093) scale(-1, 1) translate(-8.969207, -16.657093) "></path>
    </g>
</svg>