<?xml version="1.0" encoding="UTF-8"?>
<svg width="68px" height="54px" viewBox="0 0 68 54" version="1.1" xmlns="http://www.w3.org/2000/svg" xmlns:xlink="http://www.w3.org/1999/xlink">
    <!-- Generator: Sketch 64 (93537) - https://sketch.com -->
    <title>天气</title>
    <desc>Created with Sketch.</desc>
    <g id="页面-1" stroke="none" stroke-width="1" fill="none" fill-rule="evenodd">
        <g id="编组" fill-rule="nonzero">
            <path d="M20.1512936,27.4264304 C20.5613048,18.7512101 26.7266592,11.7155269 34.7142857,10.3147574 C31.6316085,4.18639072 25.4966254,-1.3500312e-13 18.420135,-1.3500312e-13 C8.24578178,-1.3500312e-13 -1.5596413e-12,8.64338463 -1.5596413e-12,19.3083344 C-1.5596413e-12,26.9329775 4.2215973,33.5070436 10.3413948,36.6428571 C11.9814398,32.1221919 15.6259843,28.6521038 20.1512936,27.4264304 L20.1512936,27.4264304 Z" id="路径" fill="#FFCA33"></path>
            <path d="M29.7099481,16.8646999 C29.7099481,27.3806133 21.3616982,35.9032117 11.0609111,35.9032117 C8.12441802,35.9032117 5.35704237,35.1969191 2.8817786,33.956983 C4.54220399,29.4994914 8.23203818,26.0778957 12.8135823,24.8693504 C13.2286887,16.3310565 19.4706582,9.37799738 27.5575448,7.99680279 C27.5601046,8.0017651 27.5626624,8.00672868 27.5652181,8.01169352 C28.5154802,7.83923668 29.4817725,7.71428571 30.4786635,7.71428571 C38.3041869,7.71428571 44.9458885,12.8937654 47.2827835,20.0822555 C48.3897337,19.8468246 49.5428069,19.7212614 50.7112544,19.7212614 C59.9819628,19.7212614 67.5,27.3963087 67.5,36.8606307 C67.5,46.3249528 59.9819628,54 50.7112544,54 L50.7112544,54 L16.4419193,54 C8.4319042,54 1.92857143,47.3765441 1.92857143,39.1835489 C1.92857143,37.3471879 2.28218054,35.5893039 2.8817786,33.9726784 C5.35704237,35.2126144 8.12441802,35.9189071 11.0609111,35.9189071 C21.3616982,35.9189071 29.7099481,27.3963087 29.7099481,16.8803953 C29.7099481,16.7118763 29.7077761,16.5438791 29.7034612,16.3764288 Z" id="形状结合" fill="#FFFFFF"></path>
        </g>
    </g>
</svg>