<?xml version="1.0" encoding="UTF-8"?>
<svg width="80px" height="81px" viewBox="0 0 80 81" version="1.1" xmlns="http://www.w3.org/2000/svg" xmlns:xlink="http://www.w3.org/1999/xlink">
    <!-- Generator: Sketch 64 (93537) - https://sketch.com -->
    <title>防火墙</title>
    <desc>Created with Sketch.</desc>
    <g id="页面-1" stroke="none" stroke-width="1" fill="none" fill-rule="evenodd">
        <g id="防火墙" transform="translate(0.000000, 0.311147)">
            <polygon id="矩形" fill="#1DAEFF" opacity="0.100000001" points="4.70588235 4.70588235 75.2941176 4.70588235 75.2941176 75.2941176 4.70588235 75.2941176"></polygon>
            <path d="M58.5773479,20 C59.6819174,20 60.5773479,20.8954305 60.5773479,22 L60.5773479,58 C60.5773479,59.1045695 59.6819174,60 58.5773479,60 L22.5773479,60 C21.4727784,60 20.5773479,59.1045695 20.5773479,58 L20.5756989,56.5828673 C22.4031751,58.6914806 25.1471195,60 28.2400062,60 C30.5107713,60 32.6024998,59.2584522 34.2794641,58.0008174 L36.0323479,58 L36.032739,56.31409 C37.008139,55.1126416 37.7066314,53.6768827 38.0328898,52.097988 L38.0323479,58 L58.5773479,58 L58.5773479,50.169 L38.2393671,50.1685344 C38.2397524,50.1322043 38.2399456,50.095824 38.2399456,50.0593943 C38.2399456,49.3788776 38.2138813,48.7683894 38.1465103,48.1684605 L43.3193479,48.169 L43.3193479,41 L35.499334,40.9994055 C35.2031339,40.8134318 34.8237697,40.825491 34.5357246,41.0002949 L31.9329171,40.999668 C31.58602,40.24856 31.2122939,39.5445823 30.8445404,38.9990407 L35.9723479,39 L35.9723479,31.83 L22.5773479,31.83 L22.5773479,39 L23.7973409,39.0015044 C23.6328514,39.57747 23.4451259,40.08426 23.246631,40.4575715 L23.0748937,40.7760207 C23.0302889,40.8573354 22.9883665,40.9324818 22.9486252,41.0023297 L22.5773479,41 L22.577483,41.5959575 C22.5735151,41.6015258 22.5695531,41.607058 22.5655962,41.6125559 C22.5098073,41.6900713 22.4525341,41.7642897 22.3883867,41.8424325 L22.2772383,41.9740819 L21.3465358,43.0072773 C21.0825583,43.2957667 20.7078082,43.6994958 20.5769718,43.8428732 L20.5773479,22 C20.5773479,20.8954305 21.4727784,20 22.5773479,20 L58.5773479,20 Z M24.8655202,36.2818229 C24.8655202,35.6058775 25.6507309,35.2334146 26.1742112,35.6610483 C26.2962513,35.7607435 26.8744804,36.2190895 27.1841403,36.4675896 L27.1841403,36.4675896 L27.5688856,36.7819747 C27.9851185,37.1281688 28.354445,37.4556634 28.7122534,37.8011773 C29.4050093,38.4701296 30.0042659,39.1617452 30.5146091,39.9093612 C31.2831311,41.0352738 32.084943,42.9595578 32.5340929,44.3725575 L32.5340929,44.3725575 L32.5537658,44.4355253 L32.6225827,44.3497897 C33.0038976,43.846397 33.2715238,43.2408954 33.3902901,42.4994139 L33.3902901,42.4994139 L33.4189637,42.2937949 C33.5105224,41.5260636 34.528701,41.3201439 34.9113984,41.9919601 C35.5353137,43.0872286 35.715287,43.457836 36.1482417,44.7287374 L36.1482417,44.7287374 L36.3513141,45.3332669 C36.9011943,46.9860433 37.0572391,48.1303252 37.0572391,49.6938626 C37.0572391,54.5795118 33.1169178,58.4587863 28.239999,58.4587863 C23.333318,58.4587863 19.4226521,54.7237701 19.4226521,49.8648656 C19.4226521,48.2319654 19.6743122,46.8405107 20.3576792,45.7293461 C20.6432041,45.2651222 20.8941706,44.9100537 21.1667936,44.578463 C21.2572798,44.4684049 21.3506896,44.3601543 21.4550829,44.2436717 C21.5304231,44.1596069 21.905397,43.7560417 22.1618239,43.4758041 L22.1618239,43.4758041 L22.9824516,42.5648053 L23.0804544,42.4487262 C23.137015,42.3798254 23.1875145,42.3143848 23.2367052,42.2460373 C23.3645654,42.0683832 23.498298,41.8501978 23.6857677,41.5084396 L23.6857677,41.5084396 L23.8371936,41.2276536 C24.4005479,40.1681465 24.8655202,37.8892551 24.8655202,36.2818229 Z M26.3636521,37.867 L26.3451111,38.028251 C26.1517632,39.5064724 25.7480674,41.0486353 25.2526921,41.9802934 C24.9499974,42.5495748 24.7483307,42.8901364 24.5378959,43.1825229 C24.4683375,43.2791702 24.3971492,43.3714207 24.319576,43.4659187 C24.2620754,43.5359646 24.2035475,43.6044969 24.1326244,43.6849279 L24.1326244,43.6849279 L23.5327951,44.3504667 L22.5624305,45.4113152 L22.405144,45.5965941 C22.1805483,45.8697693 21.971628,46.1653507 21.7232349,46.5692034 C21.2306283,47.3701888 21.0258061,48.502672 21.0258061,49.8648656 C21.0258061,53.8214736 24.2026547,56.8556324 28.239999,56.8556324 C32.237075,56.8556324 35.4540851,53.6884629 35.4540851,49.6938626 C35.4540851,48.2912457 35.3208644,47.3143334 34.8301426,45.8393694 C34.6845148,45.4016684 34.570504,45.0633791 34.4700257,44.7822242 L34.4700257,44.7822242 L34.3852089,44.5509524 L34.340642,44.6376987 C34.2042358,44.8873682 34.0503857,45.1225144 33.8807415,45.3437275 L33.8807415,45.3437275 L33.7505727,45.5070341 C33.5262679,45.7779162 33.2890852,46.0126582 33.0361164,46.2261996 C32.9431904,46.3046422 32.8534011,46.3758999 32.7554906,46.4502014 L32.7554906,46.4502014 L32.723769,46.4741082 L32.5175669,46.6253865 C31.9949038,46.9550537 31.2919233,46.5831454 31.2919233,45.944887 L31.2919233,45.944887 L31.2892101,45.8943573 C31.2280433,45.2500621 30.1440031,42.2100686 29.1905228,40.8131855 C28.7460805,40.1621095 28.2172474,39.5517712 27.5986386,38.9544183 C27.2057686,38.5750476 26.7925321,38.2148952 26.3013381,37.8151711 L26.3636521,37.867 Z M58.5773479,41 L45.3193479,41 L45.3193479,48.169 L58.5773479,48.169 L58.5773479,41 Z M58.5773479,31.83 L37.9723479,31.83 L37.9723479,39 L58.5773479,39 L58.5773479,31.83 Z M43.2593479,22 L22.5773479,22 L22.5773479,29.83 L43.2593479,29.83 L43.2593479,22 Z M58.5773479,22 L45.2593479,22 L45.2593479,29.83 L58.5773479,29.83 L58.5773479,22 Z" id="单机柜-防火墙" fill="#1DAEFF" fill-rule="nonzero"></path>
            <rect id="矩形" stroke="#1DAEFF" opacity="0.05" x="0.5" y="0.5" width="79" height="79"></rect>
            <polygon id="路径" fill="#1DAEFF" points="11.7647059 0 11.7647059 1.17647059 1.17647059 1.17647059 1.17647059 80 -1.71151981e-12 80 -1.71151981e-12 0"></polygon>
            <polygon id="路径" fill="#1DAEFF" points="68.2352941 80 68.2352941 78.8235294 78.8235294 78.8235294 78.8235294 7.10542736e-14 80 7.10542736e-14 80 80"></polygon>
        </g>
    </g>
</svg>