<?xml version="1.0" encoding="UTF-8"?>
<svg width="34px" height="38px" viewBox="0 0 34 38" version="1.1" xmlns="http://www.w3.org/2000/svg" xmlns:xlink="http://www.w3.org/1999/xlink">
    <!-- Generator: Sketch 64 (93537) - https://sketch.com -->
    <title>机柜当天功率变化</title>
    <desc>Created with Sketch.</desc>
    <g id="页面-1" stroke="none" stroke-width="1" fill="none" fill-rule="evenodd">
        <g id="机柜当天功率变化" transform="translate(-2.000000, 0.000000)">
            <path d="M19,0.692820323 L3.14551733,9.84641016 L3.14551733,28.1535898 L19,37.3071797 L34.8544827,28.1535898 L34.8544827,9.84641016 L19,0.692820323 Z" id="多边形" stroke="#1DAEFF" stroke-width="1.2"></path>
            <path d="M19,12.0947277 C23.4174842,12.0947277 26.9985496,15.6757931 26.9985496,20.0932773 C26.9985496,22.2430504 26.1458147,24.2591289 24.6558086,25.7490958 C24.447564,25.957335 24.1099373,25.9573305 23.9016981,25.7490859 C23.693459,25.5408413 23.6934635,25.2032146 23.9017081,24.9949754 C24.8002631,24.096444 25.4310453,22.9784125 25.7318864,21.75375 C25.6631767,21.7747181 25.5912398,21.7808675 25.5183721,21.7716604 L25.4646298,21.7620783 L24.0791388,21.4422074 C23.7921886,21.3759587 23.6132746,21.0896343 23.6795234,20.8026841 C23.7416316,20.5336682 23.9971656,20.3596061 24.2653045,20.3934865 L24.3190467,20.4030686 L25.7045377,20.7229395 C25.7753896,20.7392972 25.839655,20.7690721 25.8952695,20.8089608 C25.9197151,20.5736523 25.9320763,20.3344549 25.9320763,20.0932773 C25.9320763,18.5487085 25.4269217,17.1221276 24.5728115,15.9697334 L23.5078969,16.8316594 C23.2790252,17.0169891 22.9432487,16.9816913 22.757919,16.7528196 C22.5849446,16.539206 22.6041613,16.2324664 22.7935735,16.0418373 L22.8367588,16.0028417 L23.8732178,15.1632171 C22.7392457,14.0422384 21.2204975,13.3096638 19.5328561,13.1813761 L19.5332366,14.4054198 C19.5332366,14.6999183 19.2944985,14.9386565 19,14.9386565 C18.7239077,14.9386565 18.4968234,14.728828 18.4695164,14.4599402 L18.4667634,14.4054198 L18.4671439,13.1813761 C16.7795025,13.3096638 15.2607543,14.0422384 14.1267822,15.1632171 L15.1632432,16.0028433 C15.392114,16.188174 15.4274102,16.5239508 15.2420794,16.7528216 C15.0691041,16.9664344 14.7650735,17.0114221 14.5392244,16.8657903 L14.4921011,16.8316579 L13.4271885,15.9697334 C12.5730783,17.1221276 12.0679237,18.5487085 12.0679237,20.0932773 C12.0679237,20.334454 12.0802848,20.5736507 12.1046068,20.8101408 C12.1464362,20.7790792 12.1927213,20.7549864 12.2429573,20.7378858 L12.2954611,20.722939 L13.6809805,20.4030681 C13.967931,20.3368206 14.2542546,20.5157359 14.320502,20.8026864 C14.382609,21.0717026 14.229241,21.3401676 13.9733874,21.4272611 L13.9208837,21.442208 L12.5353643,21.7620789 C12.4443195,21.7830981 12.3533378,21.7794371 12.2694286,21.7554756 C12.5692969,22.9790172 13.1999772,24.0966868 14.0982802,24.9949779 C14.3065234,25.2032184 14.3065257,25.5408452 14.0982852,25.7490884 C13.8900447,25.9573316 13.5524179,25.9573339 13.3441747,25.7490934 C11.8541823,24.2591206 11.0014504,22.2430419 11.0014504,20.0932773 C11.0014504,15.6757931 14.5825158,12.0947277 19,12.0947277 Z M21.0428747,17.7410985 C21.4685492,17.5731314 21.8941539,17.9841336 21.7411444,18.4154105 L21.7411444,18.4154105 L21.6419609,18.6895766 L21.3851398,19.3758023 C21.2536047,19.7197646 21.1192197,20.0596419 20.985649,20.3828969 C20.9010788,20.5875655 20.818653,20.7810616 20.7388523,20.9616487 C20.4181662,21.6873541 20.161028,22.1675887 19.9286971,22.4081863 C19.1785895,23.1849822 17.9407951,23.206599 17.1640442,22.4564877 C16.3872482,21.70638 16.3656315,20.4685856 17.1157545,19.6918226 C17.3242644,19.4759077 17.7265279,19.2322003 18.3240403,18.9342965 L18.3240403,18.9342965 L18.5920754,18.8032284 C18.6462576,18.7771935 18.7015701,18.7508903 18.7579655,18.7243335 L18.7579655,18.7243335 L19.1089538,18.5620709 C19.5325948,18.3695508 19.9852921,18.1746641 20.4378277,17.9870696 C20.5960961,17.9214609 20.7431088,17.8614206 20.8751638,17.8081838 L20.8751638,17.8081838 Z M20.3100558,19.1982929 L19.9708134,19.3452352 C19.8279538,19.4079346 19.6873669,19.470647 19.5501802,19.5329904 C19.3752002,19.6125086 19.2093123,19.6898445 19.0539657,19.7644893 C18.4329302,20.0628997 17.9980661,20.3134126 17.8829053,20.4326632 C17.5419467,20.7857307 17.5517724,21.3483562 17.9048727,21.6893251 C18.2579402,22.0302837 18.8205657,22.0204581 19.1615225,21.6673702 C19.2723875,21.5525605 19.4978142,21.1315508 19.7633762,20.53059 L19.7633762,20.53059 L19.8404588,20.3539467 C19.8924758,20.2333047 19.9457193,20.1070012 20.0000052,19.9756236 C20.0865059,19.766283 20.1735955,19.549157 20.2601114,19.3281174 L20.2601114,19.3281174 L20.3100558,19.1982929 Z" fill="#1DAEFF" fill-rule="nonzero"></path>
        </g>
    </g>
</svg>