<?xml version="1.0" encoding="UTF-8"?>
<svg width="34px" height="38px" viewBox="0 0 34 38" version="1.1" xmlns="http://www.w3.org/2000/svg" xmlns:xlink="http://www.w3.org/1999/xlink">
    <!-- Generator: Sketch 64 (93537) - https://sketch.com -->
    <title>机柜概要</title>
    <desc>Created with Sketch.</desc>
    <g id="页面-1" stroke="none" stroke-width="1" fill="none" fill-rule="evenodd">
        <g id="机柜概要" transform="translate(-2.000000, 0.000000)">
            <path d="M19,0.692820323 L3.14551733,9.84641016 L3.14551733,28.1535898 L19,37.3071797 L34.8544827,28.1535898 L34.8544827,9.84641016 L19,0.692820323 Z" id="多边形" stroke="#1DAEFF" stroke-width="1.2"></path>
            <g id="服务器_server-3" transform="translate(12.000000, 11.000000)" fill="#1DAEFF" fill-rule="nonzero">
                <path d="M12.2709347,0.00255558785 C12.8598503,0.00255558785 13.3372606,0.479965965 13.3372606,1.06888151 L13.3372606,14.9311185 C13.3372606,15.520034 12.8598503,15.9974444 12.2709347,15.9974444 L1.72906528,15.9974444 C1.14014974,15.9974444 0.662739361,15.520034 0.662739361,14.9311185 L0.662739361,1.06888151 C0.662739361,0.479965965 1.14014974,0.00255558785 1.72906528,0.00255558785 L12.2709347,0.00255558785 Z M12.2537394,6.49955559 L1.74473936,6.49955559 L1.7454418,14.5769497 C1.7454418,14.7011326 1.83492634,14.8044152 1.95293159,14.8258338 L1.9984014,14.8299093 L12.0015986,14.8299093 C12.1257815,14.8299093 12.2290641,14.7404248 12.2504827,14.6224195 L12.2545582,14.5769497 L12.2537394,6.49955559 Z M10.6588324,8.86214605 C10.9001143,8.86214605 11.0957118,9.10672114 11.0957118,9.40841981 C11.0957118,9.68497692 10.9313556,9.91353435 10.7181144,9.94970673 L10.6588324,9.95469356 L9.20688149,9.95469356 C8.96559966,9.95469356 8.77000209,9.71011847 8.77000209,9.40841981 C8.77000209,9.1318627 8.93435838,8.90330526 9.14759955,8.86713289 L9.20688149,8.86214605 L10.6588324,8.86214605 Z M12.2537394,3.82455559 L1.74473936,3.82455559 L1.74473936,5.31455559 L12.2537394,5.31455559 L12.2537394,3.82455559 Z M12.0015986,1.17009069 L1.9984014,1.17009069 C1.87421853,1.17009069 1.77093589,1.25957523 1.74951731,1.37758048 L1.7454418,1.42305029 L1.74473936,2.63855559 L12.2537394,2.63855559 L12.2545582,1.42305029 C12.2545582,1.29886742 12.1650737,1.19558478 12.0470684,1.17416621 L12.0015986,1.17009069 Z" id="机柜概要"></path>
            </g>
        </g>
    </g>
</svg>