<?xml version="1.0" encoding="UTF-8"?>
<svg width="34px" height="38px" viewBox="0 0 34 38" version="1.1" xmlns="http://www.w3.org/2000/svg" xmlns:xlink="http://www.w3.org/1999/xlink">
    <!-- Generator: Sketch 64 (93537) - https://sketch.com -->
    <title>机柜运行概况</title>
    <desc>Created with Sketch.</desc>
    <g id="页面-1" stroke="none" stroke-width="1" fill="none" fill-rule="evenodd">
        <g id="机柜运行概况" transform="translate(-2.000000, 0.000000)">
            <path d="M19,0.692820323 L3.14551733,9.84641016 L3.14551733,28.1535898 L19,37.3071797 L34.8544827,28.1535898 L34.8544827,9.84641016 L19,0.692820323 Z" id="多边形" stroke="#1DAEFF" stroke-width="1.2"></path>
            <path d="M12.4445771,26.1699938 C11.6525985,26.1699938 11.0105784,25.5279803 11.0105784,24.735995 L11.0105784,24.735995 L11.0105784,16.9946961 C11.0105784,16.7115671 11.0943811,16.4347912 11.2514183,16.1992569 L11.2514183,16.1992569 L13.7385316,12.468587 C14.0044744,12.0696369 14.4522363,11.8300062 14.9317046,11.8300062 L14.9317046,11.8300062 L25.5554229,11.8300062 C26.3474082,11.8300062 26.9894216,12.4720263 26.9894216,13.264005 L26.9894216,13.264005 L26.9894216,24.735995 C26.9894216,25.5279831 26.347411,26.1699938 25.5554229,26.1699938 L25.5554229,26.1699938 Z M15.9265784,13.0590062 L14.9317046,13.059148 C14.8632089,13.059148 14.7992437,13.0933806 14.7612535,13.150371 L14.7612535,13.150371 L12.2741117,16.8810837 C12.2516875,16.9147169 12.2397202,16.9542415 12.2397202,16.9946961 L12.2397202,16.9946961 L12.2397202,24.735995 C12.2397202,24.8491412 12.3314319,24.940852 12.4445771,24.940852 L12.4445771,24.940852 L14.6975784,24.9400062 L14.6980037,20.6388557 C14.6980037,20.3333794 14.9208775,20.079958 15.212888,20.0323285 L15.3125746,20.0242848 L22.6874254,20.0242848 C23.0268435,20.0242848 23.3019963,20.2994376 23.3019963,20.6388557 L23.3019963,20.6388557 L23.3015784,24.9400062 L25.5554229,24.940852 C25.6497161,24.940852 25.7291157,24.8771679 25.752963,24.7904584 L25.7602798,24.735995 L25.7602798,13.264005 C25.7602798,13.1508597 25.6685691,13.059148 25.5554229,13.059148 L25.5554229,13.059148 L24.5305784,13.0590062 L24.531138,15.7222886 C24.531138,16.0617067 24.2559853,16.3368595 23.9165672,16.3368595 C23.5983627,16.3368595 23.3366414,16.095026 23.3051692,15.7851249 L23.3019963,15.7222886 L23.3015784,13.0590062 L22.0725784,13.0590062 L22.0728545,15.7222886 C22.0728545,16.0617067 21.7977017,16.3368595 21.4582836,16.3368595 C21.1400791,16.3368595 20.8783578,16.095026 20.8468856,15.7851249 L20.8437127,15.7222886 L20.8435784,13.0590062 L19.6135784,13.0590062 L19.6145709,15.7222886 C19.6145709,16.0617067 19.3394181,16.3368595 19,16.3368595 C18.6817955,16.3368595 18.4200742,16.095026 18.3886021,15.7851249 L18.3854291,15.7222886 L18.3845784,13.0590062 L17.1555784,13.0590062 L17.1562873,15.7222886 C17.1562873,16.0617067 16.8811346,16.3368595 16.5417164,16.3368595 C16.2235119,16.3368595 15.9617907,16.095026 15.9303185,15.7851249 L15.9271455,15.7222886 L15.9265784,13.0590062 Z M22.0728545,21.2530988 L15.9271455,21.2530988 L15.9271455,24.9405242 L22.0728545,24.9405242 L22.0728545,21.2530988 Z" fill="#1DAEFF" fill-rule="nonzero"></path>
        </g>
    </g>
</svg>