<?xml version="1.0" encoding="UTF-8"?>
<svg width="80px" height="81px" viewBox="0 0 80 81" version="1.1" xmlns="http://www.w3.org/2000/svg" xmlns:xlink="http://www.w3.org/1999/xlink">
    <!-- Generator: Sketch 64 (93537) - https://sketch.com -->
    <title>物理机</title>
    <desc>Created with Sketch.</desc>
    <g id="页面-1" stroke="none" stroke-width="1" fill="none" fill-rule="evenodd">
        <g id="物理机" transform="translate(0.000000, 0.555734)">
            <polygon id="矩形" fill="#1DAEFF" opacity="0.100000001" points="4.70588235 4.70588235 75.2941176 4.70588235 75.2941176 75.2941176 4.70588235 75.2941176"></polygon>
            <path d="M30.0003707,57.4993513 C29.4481064,57.4993513 29.0004078,57.0516526 29.0004078,56.4993883 C29.0004078,55.9896059 29.3818788,55.5689209 29.8749375,55.5072165 L30.0003707,55.4994254 L33.9997414,55.4986487 L33.9997414,48.4996487 L23.0006302,48.4996849 C21.4030085,48.4996849 20.097077,47.2508112 20.0058339,45.6760624 L20.0007414,45.4997961 L20.0007414,25.5005375 C20.0007414,23.8437447 21.3438374,22.5006487 23.0006302,22.5006487 L23.0006302,22.5006487 L56.9993698,22.5006487 C58.6561626,22.5006487 59.9992586,23.8437447 59.9992586,25.5005375 L59.9992586,25.5005375 L59.9992586,45.4997961 C59.9992586,47.1565889 58.6561626,48.4996849 56.9993698,48.4996849 L56.9993698,48.4996849 L45.9997414,48.4996487 L45.9997414,55.4986487 L49.9996293,55.4994254 C50.5518936,55.4994254 50.9995922,55.9471241 50.9995922,56.4993883 C50.9995922,57.0091707 50.6181212,57.4298558 50.1250625,57.4915601 L49.9996293,57.4993513 L30.0003707,57.4993513 Z M43.9987414,48.4996487 L35.9997414,48.4996487 L36.0001483,55.4986254 L43.9990517,55.4986254 L43.9987414,48.4996487 Z M56.9993698,24.5005746 L23.0006302,24.5005746 C22.4483659,24.5005746 22.0006673,24.9482732 22.0006673,25.5005375 L22.0006673,25.5005375 L22.0006673,45.4997961 C22.0006673,46.0520604 22.4483659,46.499759 23.0006302,46.499759 L23.0006302,46.499759 L56.9993698,46.499759 C57.5516341,46.499759 57.9993327,46.0520604 57.9993327,45.4997961 L57.9993327,45.4997961 L57.9993327,25.5005375 C57.9993327,24.9482732 57.5516341,24.5005746 56.9993698,24.5005746 L56.9993698,24.5005746 Z M41.9999259,41.4999444 C42.5521901,41.4999444 42.9998888,41.947643 42.9998888,42.4999073 C42.9998888,43.0096897 42.6184177,43.4303748 42.1253591,43.4920791 L41.9999259,43.4998703 L38.0000741,43.4998703 C37.4478099,43.4998703 37.0001112,43.0521716 37.0001112,42.4999073 C37.0001112,41.9901249 37.3815823,41.5694398 37.8746409,41.5077355 L38.0000741,41.4999444 L41.9999259,41.4999444 Z" id="单机柜-物理机" fill="#1DAEFF" fill-rule="nonzero"></path>
            <rect id="矩形" stroke="#1DAEFF" opacity="0.05" x="0.5" y="0.5" width="79" height="79"></rect>
            <polygon id="路径" fill="#1DAEFF" points="11.7647059 0 11.7647059 1.17647059 1.17647059 1.17647059 1.17647059 80 -1.71151981e-12 80 -1.71151981e-12 0"></polygon>
            <polygon id="路径" fill="#1DAEFF" points="68.2352941 80 68.2352941 78.8235294 78.8235294 78.8235294 78.8235294 7.10542736e-14 80 7.10542736e-14 80 80"></polygon>
        </g>
    </g>
</svg>