<?xml version="1.0" encoding="UTF-8"?>
<svg width="80px" height="81px" viewBox="0 0 80 81" version="1.1" xmlns="http://www.w3.org/2000/svg" xmlns:xlink="http://www.w3.org/1999/xlink">
    <!-- Generator: Sketch 64 (93537) - https://sketch.com -->
    <title>路由器</title>
    <desc>Created with Sketch.</desc>
    <g id="页面-1" stroke="none" stroke-width="1" fill="none" fill-rule="evenodd">
        <g id="路由器" transform="translate(0.000000, 0.622294)">
            <polygon id="矩形" fill="#1DAEFF" opacity="0.100000001" points="4.70588235 4.70588235 75.2941176 4.70588235 75.2941176 75.2941176 4.70588235 75.2941176"></polygon>
            <path d="M51.1627907,22.7906977 C51.8852562,22.7906977 52.4794797,23.3397671 52.5509355,24.0433802 L52.5581395,24.1860465 L52.558,41.3946977 L56.744186,41.3953488 C58.4803177,41.3953488 59.8990657,42.7542302 59.994846,44.466409 L60,44.6511628 L60,53.9534884 C60,55.7516248 58.5423224,57.2093023 56.744186,57.2093023 L56.744186,57.2093023 L23.255814,57.2093023 C21.4576776,57.2093023 20,55.7516248 20,53.9534884 L20,53.9534884 L20,44.6511628 C20,42.8530264 21.4576776,41.3953488 23.255814,41.3953488 L23.255814,41.3953488 L27.441,41.3946977 L27.4418605,24.1860465 C27.4418605,23.4154166 28.0665794,22.7906977 28.8372093,22.7906977 C29.5596748,22.7906977 30.1538983,23.3397671 30.2253541,24.0433802 L30.2325581,24.1860465 L30.232,41.3946977 L49.767,41.3946977 L49.7674419,24.1860465 C49.7674419,23.4154166 50.3921608,22.7906977 51.1627907,22.7906977 Z M56.744186,44.1860465 L23.255814,44.1860465 C22.9989373,44.1860465 22.7906977,44.3942862 22.7906977,44.6511628 L22.7906977,44.6511628 L22.7906977,53.9534884 C22.7906977,54.210365 22.9989373,54.4186047 23.255814,54.4186047 L23.255814,54.4186047 L56.744186,54.4186047 C57.0010627,54.4186047 57.2093023,54.210365 57.2093023,53.9534884 L57.2093023,53.9534884 L57.2093023,44.6511628 C57.2093023,44.3942862 57.0010627,44.1860465 56.744186,44.1860465 L56.744186,44.1860465 Z M38.1395349,47.9069767 C38.9101648,47.9069767 39.5348837,48.5316957 39.5348837,49.3023256 C39.5348837,50.0247911 38.9858143,50.6190146 38.2822012,50.6904704 L38.1395349,50.6976744 L30.6976744,50.6976744 C29.9270445,50.6976744 29.3023256,50.0729555 29.3023256,49.3023256 C29.3023256,48.5798601 29.851395,47.9856366 30.5550081,47.9141808 L30.6976744,47.9069767 L38.1395349,47.9069767 Z" id="单机柜-路由器" fill="#1DAEFF" fill-rule="nonzero"></path>
            <rect id="矩形" stroke="#1DAEFF" opacity="0.05" x="0.5" y="0.5" width="79" height="79"></rect>
            <polygon id="路径" fill="#1DAEFF" points="11.7647059 0 11.7647059 1.17647059 1.17647059 1.17647059 1.17647059 80 -1.71151981e-12 80 -1.71151981e-12 0"></polygon>
            <polygon id="路径" fill="#1DAEFF" points="68.2352941 80 68.2352941 78.8235294 78.8235294 78.8235294 78.8235294 7.10542736e-14 80 7.10542736e-14 80 80"></polygon>
        </g>
    </g>
</svg>