<?xml version="1.0" encoding="UTF-8"?>
<svg width="80px" height="81px" viewBox="0 0 80 81" version="1.1" xmlns="http://www.w3.org/2000/svg" xmlns:xlink="http://www.w3.org/1999/xlink">
    <!-- Generator: Sketch 64 (93537) - https://sketch.com -->
    <title>安全设备</title>
    <desc>Created with Sketch.</desc>
    <g id="页面-1" stroke="none" stroke-width="1" fill="none" fill-rule="evenodd">
        <g id="安全设备" transform="translate(0.000000, 0.489387)">
            <polygon id="矩形" fill="#1DAEFF" opacity="0.100000001" points="4.70588235 4.70588235 75.2941176 4.70588235 75.2941176 75.2941176 4.70588235 75.2941176"></polygon>
            <rect id="矩形" stroke="#1DAEFF" opacity="0.05" x="0.5" y="0.5" width="79" height="79"></rect>
            <polygon id="路径" fill="#1DAEFF" points="11.7647059 0 11.7647059 1.17647059 1.17647059 1.17647059 1.17647059 80 -1.71151981e-12 80 -1.71151981e-12 0"></polygon>
            <polygon id="路径" fill="#1DAEFF" points="68.2352941 80 68.2352941 78.8235294 78.8235294 78.8235294 78.8235294 7.10542736e-14 80 7.10542736e-14 80 80"></polygon>
            <path d="M22.4464453,25.1334967 L40.0084277,20.0082061 L57.5535547,25.1334967 L57.5535547,35.6442103 C57.5535547,46.6917385 50.4835897,56.4995335 40.0025594,59.9917939 L40.0025594,59.9917939 C29.5186547,56.4995943 22.4464453,46.6895899 22.4464453,35.6393539 L22.4464453,25.1334967 Z" id="单机柜-安全设备" stroke="#1DAEFF" stroke-width="2" stroke-linejoin="round"></path>
            <path d="M49.3748938,36.5312553 C49.8926549,36.5312553 50.3123832,36.9509836 50.3123832,37.4687447 L50.3123832,37.4687447 L50.3123832,43.093681 C50.3123832,43.611442 49.8926549,44.0311703 49.3748938,44.0311703 L49.3748938,44.0311703 L30.6251062,44.0311703 C30.1073451,44.0311703 29.6876168,43.611442 29.6876168,43.093681 L29.6876168,43.093681 L29.6876168,37.4687447 C29.6876168,36.9509836 30.1073451,36.5312553 30.6251062,36.5312553 L30.6251062,36.5312553 Z M48.4374044,38.4062341 L31.5625956,38.4062341 L31.5625956,42.1558166 L48.4374044,42.1558166 L48.4374044,38.4062341 Z M49.3748938,29.9688297 C49.8926549,29.9688297 50.3123832,30.388558 50.3123832,30.906319 C50.3123832,31.3842523 49.9547449,31.7786548 49.4924905,31.836504 L49.3748938,31.8438084 L38.1250212,31.8438084 C37.6072602,31.8438084 37.1875319,31.4240801 37.1875319,30.906319 C37.1875319,30.4283857 37.5451702,30.0339833 38.0074246,29.976134 L38.1250212,29.9688297 L49.3748938,29.9688297 Z M32.500085,29.9688297 C33.0178461,29.9688297 33.4375743,30.388558 33.4375743,30.906319 C33.4375743,31.3842523 33.079936,31.7786548 32.6176816,31.836504 L32.500085,31.8438084 L30.6251062,31.8438084 C30.1073451,31.8438084 29.6876168,31.4240801 29.6876168,30.906319 C29.6876168,30.4283857 30.0452551,30.0339833 30.5075095,29.976134 L30.6251062,29.9688297 L32.500085,29.9688297 Z" id="形状结合" fill="#1DAEFF" fill-rule="nonzero"></path>
        </g>
    </g>
</svg>