<?xml version="1.0" encoding="UTF-8"?>
<svg width="80px" height="80px" viewBox="0 0 80 80" version="1.1" xmlns="http://www.w3.org/2000/svg" xmlns:xlink="http://www.w3.org/1999/xlink">
    <!-- Generator: Sketch 64 (93537) - https://sketch.com -->
    <title>机位使用</title>
    <desc>Created with Sketch.</desc>
    <g id="页面-1" stroke="none" stroke-width="1" fill="none" fill-rule="evenodd">
        <g id="机位使用">
            <polygon id="矩形" fill="#1DAEFF" opacity="0.100000001" points="4.70588235 4.70588235 75.2941176 4.70588235 75.2941176 75.2941176 4.70588235 75.2941176"></polygon>
            <rect id="矩形" stroke="#1DAEFF" opacity="0.05" x="0.5" y="0.5" width="79" height="79"></rect>
            <polygon id="路径" fill="#1DAEFF" points="11.7647059 0 11.7647059 1.17647059 1.17647059 1.17647059 1.17647059 80 -1.71151981e-12 80 -1.71151981e-12 0"></polygon>
            <polygon id="路径" fill="#1DAEFF" points="68.2352941 80 68.2352941 78.8235294 78.8235294 78.8235294 78.8235294 7.10542736e-14 80 7.10542736e-14 80 80"></polygon>
            <path d="M53.1815476,20 C54.654307,20 55.8482143,21.1939073 55.8482143,22.6666667 L55.8482143,57.3333333 C55.8482143,58.8060927 54.654307,60 53.1815476,60 L26.8184524,60 C25.345693,60 24.1517857,58.8060927 24.1517857,57.3333333 L24.1517857,22.6666667 C24.1517857,21.1939073 25.345693,20 26.8184524,20 L53.1815476,20 Z M53.8477857,35.284 L26.1517857,35.284 L26.1517857,57.3333333 C26.1517857,57.6606132 26.3876193,57.9328112 26.6986182,57.9892591 L26.8184524,58 L53.1815476,58 C53.5088275,58 53.7810254,57.7641665 53.8374734,57.4531675 L53.8482143,57.3333333 L53.8477857,35.284 Z M49.2425516,42.1560539 C49.7948363,42.1560539 50.2425516,42.6037691 50.2425516,43.1560539 C50.2425516,43.6623149 49.8663464,44.0807085 49.3782457,44.1469251 L49.2425516,44.1560539 L45.9190921,44.1560539 C45.3668074,44.1560539 44.9190921,43.7083386 44.9190921,43.1560539 C44.9190921,42.6497929 45.2952973,42.2313993 45.7833981,42.1651827 L45.9190921,42.1560539 L49.2425516,42.1560539 Z M53.8477857,28.594 L26.1517857,28.594 L26.1517857,33.284 L53.8477857,33.284 L53.8477857,28.594 Z M53.1815476,22 L26.8184524,22 C26.4911725,22 26.2189746,22.2358335 26.1625266,22.5468325 L26.1517857,22.6666667 L26.1517857,26.594 L53.8477857,26.594 L53.8482143,22.6666667 C53.8482143,22.3393868 53.6123807,22.0671888 53.3013818,22.0107409 L53.1815476,22 Z" id="单机柜-机位使用" fill="#1DAEFF" fill-rule="nonzero"></path>
        </g>
    </g>
</svg>