<?xml version="1.0" encoding="UTF-8"?>
<svg width="80px" height="81px" viewBox="0 0 80 81" version="1.1" xmlns="http://www.w3.org/2000/svg" xmlns:xlink="http://www.w3.org/1999/xlink">
    <!-- Generator: Sketch 64 (93537) - https://sketch.com -->
    <title>交换机</title>
    <desc>Created with Sketch.</desc>
    <g id="页面-1" stroke="none" stroke-width="1" fill="none" fill-rule="evenodd">
        <g id="交换机" transform="translate(0.000000, 0.933440)">
            <polygon id="矩形" fill="#1DAEFF" opacity="0.100000001" points="4.70588235 4.70588235 75.2941176 4.70588235 75.2941176 75.2941176 4.70588235 75.2941176"></polygon>
            <path d="M59.0498284,42.8574743 C59.5758749,42.8574743 60.0023199,43.2839192 60.0023199,43.8099657 L60.0023199,43.8099657 L60.0023199,59.0498284 C60.0023199,59.5758749 59.5758749,60.0023199 59.0498284,60.0023199 L59.0498284,60.0023199 L20.9501716,60.0023199 C20.4241251,60.0023199 19.9976801,59.5758749 19.9976801,59.0498284 L19.9976801,59.0498284 L19.9976801,43.8099657 C19.9976801,43.2839192 20.4241251,42.8574743 20.9501716,42.8574743 L20.9501716,42.8574743 Z M58.096956,44.7616951 L21.901901,44.7616951 L21.901901,58.096956 L58.096956,58.096956 L58.096956,44.7616951 Z M29.5225944,49.5249142 C30.0486554,49.5249142 30.4750858,49.9513446 30.4750858,50.4774056 L30.4750858,50.4774056 L30.4750858,52.3823885 C30.4750858,52.9084495 30.0486554,53.3348799 29.5225944,53.3348799 L29.5225944,53.3348799 L27.6176115,53.3348799 C27.0915505,53.3348799 26.6651201,52.9084495 26.6651201,52.3823885 L26.6651201,52.3823885 L26.6651201,50.4774056 C26.6651201,49.9513446 27.0915505,49.5249142 27.6176115,49.5249142 L27.6176115,49.5249142 Z M37.1425257,49.5249142 C37.6685867,49.5249142 38.0950172,49.9513446 38.0950172,50.4774056 L38.0950172,50.4774056 L38.0950172,52.3823885 C38.0950172,52.9084495 37.6685867,53.3348799 37.1425257,53.3348799 L37.1425257,53.3348799 L35.2375429,53.3348799 C34.7114819,53.3348799 34.2850515,52.9084495 34.2850515,52.3823885 L34.2850515,52.3823885 L34.2850515,50.4774056 C34.2850515,49.9513446 34.7114819,49.5249142 35.2375429,49.5249142 L35.2375429,49.5249142 Z M59.0498284,19.9976801 C59.5758749,19.9976801 60.0023199,20.4241251 60.0023199,20.9501716 L60.0023199,20.9501716 L60.0023199,36.1900343 C60.0023199,36.7160808 59.5758749,37.1425257 59.0498284,37.1425257 L59.0498284,37.1425257 L20.9501716,37.1425257 C20.4241251,37.1425257 19.9976801,36.7160808 19.9976801,36.1900343 L19.9976801,36.1900343 L19.9976801,20.9501716 C19.9976801,20.4241251 20.4241251,19.9976801 20.9501716,19.9976801 L20.9501716,19.9976801 Z M58.096956,21.901901 L21.901901,21.901901 L21.901901,35.2371619 L58.096956,35.2371619 L58.096956,21.901901 Z M29.5225944,26.6651201 C30.0486554,26.6651201 30.4750858,27.0915505 30.4750858,27.6176115 L30.4750858,27.6176115 L30.4750858,29.5225944 C30.4750858,30.0486554 30.0486554,30.4750858 29.5225944,30.4750858 L29.5225944,30.4750858 L27.6176115,30.4750858 C27.0915505,30.4750858 26.6651201,30.0486554 26.6651201,29.5225944 L26.6651201,29.5225944 L26.6651201,27.6176115 C26.6651201,27.0915505 27.0915505,26.6651201 27.6176115,26.6651201 L27.6176115,26.6651201 Z M37.1425257,26.6651201 C37.6685867,26.6651201 38.0950172,27.0915505 38.0950172,27.6176115 L38.0950172,27.6176115 L38.0950172,29.5225944 C38.0950172,30.0486554 37.6685867,30.4750858 37.1425257,30.4750858 L37.1425257,30.4750858 L35.2375429,30.4750858 C34.7114819,30.4750858 34.2850515,30.0486554 34.2850515,29.5225944 L34.2850515,29.5225944 L34.2850515,27.6176115 C34.2850515,27.0915505 34.7114819,26.6651201 35.2375429,26.6651201 L35.2375429,26.6651201 Z" id="单机柜-交换机" fill="#1DAEFF" fill-rule="nonzero"></path>
            <rect id="矩形" stroke="#1DAEFF" opacity="0.05" x="0.5" y="0.5" width="79" height="79"></rect>
            <polygon id="路径" fill="#1DAEFF" points="11.7647059 0 11.7647059 1.17647059 1.17647059 1.17647059 1.17647059 80 -1.71151981e-12 80 -1.71151981e-12 0"></polygon>
            <polygon id="路径" fill="#1DAEFF" points="68.2352941 80 68.2352941 78.8235294 78.8235294 78.8235294 78.8235294 7.10542736e-14 80 7.10542736e-14 80 80"></polygon>
        </g>
    </g>
</svg>