<?xml version="1.0" encoding="UTF-8"?>
<svg width="80px" height="81px" viewBox="0 0 80 81" version="1.1" xmlns="http://www.w3.org/2000/svg" xmlns:xlink="http://www.w3.org/1999/xlink">
    <!-- Generator: Sketch 64 (93537) - https://sketch.com -->
    <title>虚拟机</title>
    <desc>Created with Sketch.</desc>
    <g id="页面-1" stroke="none" stroke-width="1" fill="none" fill-rule="evenodd">
        <g id="虚拟机" transform="translate(0.000000, 0.244587)">
            <polygon id="矩形" fill="#1DAEFF" opacity="0.100000001" points="4.70588235 4.70588235 75.2941176 4.70588235 75.2941176 75.2941176 4.70588235 75.2941176"></polygon>
            <path d="M49.3040218,48.4374192 C49.8217829,48.4374192 50.2415112,48.8571475 50.2415112,49.3749086 L50.2415112,49.3749086 L50.2415112,54.9998448 C50.2415112,55.5176059 49.8217829,55.9373342 49.3040218,55.9373342 L49.3040218,55.9373342 L30.5542342,55.9373342 C30.0364731,55.9373342 29.6167448,55.5176059 29.6167448,54.9998448 L29.6167448,54.9998448 L29.6167448,49.3749086 C29.6167448,48.8571475 30.0364731,48.4374192 30.5542342,48.4374192 L30.5542342,48.4374192 Z M48.3665324,50.312398 L31.4917236,50.312398 L31.4917236,54.0619805 L48.3665324,54.0619805 L48.3665324,50.312398 Z M36.4209692,24.1599765 C42.1352219,24.8181327 46.910814,28.7281986 48.7192587,34.1212582 L48.8232772,34.4444527 L50.2901935,34.4449218 C54.5238065,34.4416552 58.1645166,36.6813526 59.4764236,40.3679325 L59.572717,40.654356 C60.833881,44.6349991 59.3693049,48.9737555 55.9536448,51.375609 C55.5301139,51.6734312 54.9453416,51.5715241 54.6475194,51.1479931 C54.3496972,50.7244622 54.4516043,50.1396899 54.8751353,49.8418677 C57.6217416,47.9104851 58.7994387,44.4215981 57.7853016,41.2206524 C56.8561514,38.2879525 54.0392806,36.4320857 50.6137997,36.3248137 L50.2909168,36.3199002 L48.115004,36.3199002 C47.6869855,36.3199002 47.3133137,36.0300055 47.2069324,35.6154179 C45.8810022,30.4480215 41.5062048,26.6330582 36.206433,26.0226411 C30.9065667,25.4122232 25.779117,28.132688 23.3131272,32.863414 C20.8471432,37.5941291 21.5532636,43.355495 25.0887006,47.3506778 C25.431823,47.7384195 25.3956518,48.3309019 25.0079101,48.6740242 C24.6201684,49.0171465 24.0276861,48.9809753 23.6845638,48.5932336 C19.6343931,44.0163816 18.8254661,37.4161988 21.6504803,31.9967246 C24.4755018,26.5772364 30.3494812,23.4606862 36.4209692,24.1599765 Z M49.3040218,41.8749935 C49.8217829,41.8749935 50.2415112,42.2947218 50.2415112,42.8124829 C50.2415112,43.2904162 49.8838728,43.6848186 49.4216185,43.7426679 L49.3040218,43.7499723 L38.0541492,43.7499723 C37.5363881,43.7499723 37.1166599,43.330244 37.1166599,42.8124829 C37.1166599,42.3345496 37.4742982,41.9401472 37.9365526,41.8822979 L38.0541492,41.8749935 L49.3040218,41.8749935 Z M32.429213,41.8749935 C32.946974,41.8749935 33.3667023,42.2947218 33.3667023,42.8124829 C33.3667023,43.2904162 33.009064,43.6848186 32.5468096,43.7426679 L32.429213,43.7499723 L30.5542342,43.7499723 C30.0364731,43.7499723 29.6167448,43.330244 29.6167448,42.8124829 C29.6167448,42.3345496 29.9743831,41.9401472 30.4366375,41.8822979 L30.5542342,41.8749935 L32.429213,41.8749935 Z" id="单机柜-虚拟机" fill="#1DAEFF" fill-rule="nonzero"></path>
            <rect id="矩形" stroke="#1DAEFF" opacity="0.05" x="0.5" y="0.5" width="79" height="79"></rect>
            <polygon id="路径" fill="#1DAEFF" points="11.7647059 0 11.7647059 1.17647059 1.17647059 1.17647059 1.17647059 80 -1.71151981e-12 80 -1.71151981e-12 0"></polygon>
            <polygon id="路径" fill="#1DAEFF" points="68.2352941 80 68.2352941 78.8235294 78.8235294 78.8235294 78.8235294 7.10542736e-14 80 7.10542736e-14 80 80"></polygon>
        </g>
    </g>
</svg>