<?xml version="1.0" encoding="UTF-8"?>
<svg width="34px" height="38px" viewBox="0 0 34 38" version="1.1" xmlns="http://www.w3.org/2000/svg" xmlns:xlink="http://www.w3.org/1999/xlink">
    <!-- Generator: Sketch 64 (93537) - https://sketch.com -->
    <title>机柜当天温度变化</title>
    <desc>Created with Sketch.</desc>
    <g id="页面-1" stroke="none" stroke-width="1" fill="none" fill-rule="evenodd">
        <g id="机柜当天温度变化" transform="translate(-2.000000, 0.000000)">
            <path d="M19,0.692820323 L3.14551733,9.84641016 L3.14551733,28.1535898 L19,37.3071797 L34.8544827,28.1535898 L34.8544827,9.84641016 L19,0.692820323 Z" id="多边形" stroke="#1DAEFF" stroke-width="1.2"></path>
            <path d="M19,10.9922301 C20.5427567,10.9922301 21.7934081,12.2428815 21.7934081,13.7856382 L21.7934081,13.7856382 L21.7932591,19.4774866 L21.8883877,19.5615831 C22.7326641,20.3323568 23.2429382,21.4142887 23.2809411,22.5837971 L23.2809411,22.5837971 L23.2832257,22.7245441 C23.2832257,25.0901044 21.3655603,27.0077699 19,27.0077699 C16.6344397,27.0077699 14.7167743,25.0901044 14.7167743,22.7245441 C14.7167743,21.5013411 15.2335648,20.3631877 16.1116123,19.5615831 L16.1116123,19.5615831 L16.2064429,19.4774866 L16.2065919,13.7856382 C16.2065919,12.277165 17.4022764,11.0479589 18.8975928,10.9940724 L18.8975928,10.9940724 Z M19,12.1095934 C18.074346,12.1095934 17.3239551,12.8599842 17.3239551,13.7856382 L17.3239551,13.7856382 L17.3239551,19.744636 C17.3239551,19.9203432 17.2412947,20.0858133 17.1008052,20.1913391 C16.3088209,20.7862217 15.8341375,21.7154123 15.8341375,22.7245441 C15.8341375,24.4730017 17.2515424,25.8904066 19,25.8904066 C20.7484576,25.8904066 22.1658625,24.4730017 22.1658625,22.7245441 C22.1658625,21.7154123 21.6911791,20.7862217 20.8991948,20.1913391 C20.7587053,20.0858133 20.6760449,19.9203432 20.6760449,19.744636 L20.6760449,19.744636 L20.6760449,13.7856382 C20.6760449,12.8599842 19.925654,12.1095934 19,12.1095934 Z M19.0131011,15.8341375 C19.3091513,15.8341375 19.5526508,16.0539786 19.5819318,16.3356972 L19.5848839,16.3928191 L19.5856939,20.7609973 C20.4316573,21.0129615 21.0484993,21.7967172 21.0484993,22.7245441 C21.0484993,23.855899 20.1313549,24.7730434 19,24.7730434 C17.8686451,24.7730434 16.9515007,23.855899 16.9515007,22.7245441 C16.9515007,21.7870228 17.5813003,20.9965989 18.440898,20.753274 L18.4413184,16.3928191 C18.4413184,16.0842678 18.6973142,15.8341375 19.0131011,15.8341375 Z M19,21.7934081 C18.4857478,21.7934081 18.068864,22.2102919 18.068864,22.7245441 C18.068864,23.2387964 18.4857478,23.6556802 19,23.6556802 C19.5142522,23.6556802 19.931136,23.2387964 19.931136,22.7245441 C19.931136,22.2102919 19.5142522,21.7934081 19,21.7934081 Z" fill="#1DAEFF" fill-rule="nonzero"></path>
        </g>
    </g>
</svg>