<?xml version="1.0" encoding="UTF-8"?>
<svg width="34px" height="39px" viewBox="0 0 34 39" version="1.1" xmlns="http://www.w3.org/2000/svg" xmlns:xlink="http://www.w3.org/1999/xlink">
    <!-- Generator: Sketch 64 (93537) - https://sketch.com -->
    <title>市电总负载</title>
    <desc>Created with Sketch.</desc>
    <g id="页面-1" stroke="none" stroke-width="1" fill="none" fill-rule="evenodd">
        <g id="市电总负载" transform="translate(-2.000000, 0.500000)">
            <path d="M19,0.692820323 L3.14551733,9.84641016 L3.14551733,28.1535898 L19,37.3071797 L34.8544827,28.1535898 L34.8544827,9.84641016 L19,0.692820323 Z" id="多边形" stroke="#1DAEFF" stroke-width="1.2"></path>
            <path d="M16.4385511,12.3478129 C16.5995583,11.884277 17.2285108,11.8899364 17.3943656,12.3296764 L17.4119857,12.3845265 L20.7495149,24.8218351 L22.9502584,19.083584 C23.0206329,18.9000342 23.1849341,18.7740915 23.3735428,18.7543757 L23.4255319,18.7516689 L26.4893617,18.7516689 C26.7713794,18.7516689 27,18.9859378 27,19.274923 C27,19.5458467 26.799064,19.7686798 26.5415715,19.7954756 L26.4893617,19.7981771 L23.7733106,19.7981771 L21.1395799,26.6680524 C20.9669649,27.1182646 20.352023,27.1025167 20.1892511,26.6694283 L20.1719462,26.6154576 L16.856817,14.2634046 L15.0555425,19.4503808 C14.9891476,19.6415302 14.8217445,19.7744846 14.6279264,19.7953162 L14.5744681,19.7981771 L11.5106383,19.7981771 C11.2286206,19.7981771 11,19.5639083 11,19.274923 C11,19.0039993 11.200936,18.7811663 11.4584285,18.7543704 L11.5106383,18.7516689 L14.2137532,18.7516689 L16.4385511,12.3478129 Z" id="路径" fill="#1DAEFF" fill-rule="nonzero"></path>
        </g>
    </g>
</svg>