<?xml version="1.0" encoding="UTF-8"?>
<svg width="185px" height="52px" viewBox="0 0 185 52" version="1.1" xmlns="http://www.w3.org/2000/svg" xmlns:xlink="http://www.w3.org/1999/xlink">
    <!-- Generator: Sketch 64 (93537) - https://sketch.com -->
    <title>UPS选中</title>
    <desc>Created with Sketch.</desc>
    <g id="页面-1" stroke="none" stroke-width="1" fill="none" fill-rule="evenodd">
        <g id="UPS选中" transform="translate(0.000000, 0.500000)" fill="#3DD36E">
            <g id="编组-3">
                <polygon id="矩形" opacity="0.100000001" points="6.95 0.5 178.95 0.5 184.95 6.5 184.95 44.5 178.95 50.5 6.95 50.5 0.95 44.5 0.95 6.5"></polygon>
                <polygon id="路径" fill-rule="nonzero" points="36.5 0 35.5 1 6.706 1 1 6.706 1 44.293 6.707 50 178.292 50 184 44.292 184 6.707 178.293 1 149.5 1 148.5 0 178.707107 0 185 6.29289322 185 44.7071068 178.707107 51 6.29289322 51 -3.63797881e-12 44.7071068 -3.63797881e-12 6.29289322 6.29289322 0"></polygon>
            </g>
        </g>
    </g>
</svg>