<?xml version="1.0" encoding="UTF-8"?>
<svg width="23px" height="28px" viewBox="0 0 23 28" version="1.1" xmlns="http://www.w3.org/2000/svg" xmlns:xlink="http://www.w3.org/1999/xlink">
    <!-- Generator: Sketch 64 (93537) - https://sketch.com -->
    <title>进入人数</title>
    <desc>Created with Sketch.</desc>
    <g id="页面-1" stroke="none" stroke-width="1" fill="none" fill-rule="evenodd">
        <path d="M1.78115753,0 L1.781,13.735 L13.6108676,13.7348969 L10.6184479,10.7378363 L11.4638306,9.89389693 L15.2978676,13.7348969 L15.8952089,14.3317456 L15.8938676,14.3318969 L15.8953333,14.3331392 L15.2968676,14.9298969 L11.4637311,18.7709879 L10.6183483,17.9270237 L13.6088676,14.9298969 L1.781,14.929 L1.78115753,28 L-1.8189894e-12,28 L-1.8189894e-12,0 L1.78115753,0 Z M20.6780969,0.0125925164 C21.9510204,0.0125925164 22.9868449,1.17937911 22.9868449,2.61348684 L22.9868449,2.61348684 L22.9868449,25.3034025 C22.9868449,26.7389494 21.9503009,27.9068154 20.6759382,27.9068154 L20.6759382,27.9068154 L7.17891928,27.9068154 L7.17891928,20.6002775 C7.17891928,20.1233869 7.56551551,19.7367907 8.04240613,19.7367907 C8.51929674,19.7367907 8.90589297,20.1233869 8.90589297,20.6002775 L8.90589297,20.6002775 L8.90589297,26.1798417 L20.6759382,26.1798417 C20.952254,26.1798417 21.2598712,25.8200555 21.2598712,25.3034025 L21.2598712,25.3034025 L21.2598712,2.61348684 C21.2598712,2.09935238 20.9529736,1.7395662 20.6780969,1.7395662 L20.6780969,1.7395662 L8.90589297,1.7395662 L8.90589297,7.40835732 C8.90589297,7.88524793 8.51929674,8.27184416 8.04240613,8.27184416 C7.56551551,8.27184416 7.17891928,7.88524793 7.17891928,7.40835732 L7.17891928,7.40835732 L7.17891928,0.0125925164 Z M19.5163355,4.97220618 L19.5163355,23.3820432 L17.735178,23.3820432 L17.735178,4.97220618 L19.5163355,4.97220618 Z" id="进入人数" fill="#FFFFFF" fill-rule="nonzero"></path>
    </g>
</svg>