<?xml version="1.0" encoding="UTF-8"?>
<svg width="24px" height="28px" viewBox="0 0 24 28" version="1.1" xmlns="http://www.w3.org/2000/svg" xmlns:xlink="http://www.w3.org/1999/xlink">
    <!-- Generator: Sketch 64 (93537) - https://sketch.com -->
    <title>离开人数</title>
    <desc>Created with Sketch.</desc>
    <g id="页面-1" stroke="none" stroke-width="1" fill="none" fill-rule="evenodd">
        <path d="M2.28115753,0 L2.281,13.735 L14.1108676,13.7348969 L11.1184479,10.7378363 L11.9638306,9.89389693 L15.7978676,13.7348969 L16.3952089,14.3317456 L16.3938676,14.3318969 L16.3953333,14.3331392 L15.7968676,14.9298969 L11.9637311,18.7709879 L11.1183483,17.9270237 L14.1088676,14.9298969 L2.281,14.929 L2.28115753,28 L0.5,28 L0.5,0 L2.28115753,0 Z M21.1780969,0.0125925164 C22.4510204,0.0125925164 23.4868449,1.17937911 23.4868449,2.61348684 L23.4868449,2.61348684 L23.4868449,25.3034025 C23.4868449,26.7389494 22.4503009,27.9068154 21.1759382,27.9068154 L21.1759382,27.9068154 L7.67891928,27.9068154 L7.67891928,20.6002775 C7.67891928,20.1233869 8.06551551,19.7367907 8.54240613,19.7367907 C9.01929674,19.7367907 9.40589297,20.1233869 9.40589297,20.6002775 L9.40589297,20.6002775 L9.40589297,26.1798417 L21.1759382,26.1798417 C21.452254,26.1798417 21.7598712,25.8200555 21.7598712,25.3034025 L21.7598712,25.3034025 L21.7598712,2.61348684 C21.7598712,2.09935238 21.4529736,1.7395662 21.1780969,1.7395662 L21.1780969,1.7395662 L9.40589297,1.7395662 L9.40589297,7.40835732 C9.40589297,7.88524793 9.01929674,8.27184416 8.54240613,8.27184416 C8.06551551,8.27184416 7.67891928,7.88524793 7.67891928,7.40835732 L7.67891928,7.40835732 L7.67891928,0.0125925164 Z M20.0163355,4.97220618 L20.0163355,23.3820432 L18.235178,23.3820432 L18.235178,4.97220618 L20.0163355,4.97220618 Z" id="离开人数" fill="#FFFFFF" fill-rule="nonzero" transform="translate(11.993422, 14.000000) scale(-1, 1) translate(-11.993422, -14.000000) "></path>
    </g>
</svg>