<?xml version="1.0" encoding="UTF-8"?>
<svg width="37px" height="36px" viewBox="0 0 37 36" version="1.1" xmlns="http://www.w3.org/2000/svg" xmlns:xlink="http://www.w3.org/1999/xlink">
    <!-- Generator: Sketch 64 (93537) - https://sketch.com -->
    <title>人脸识别</title>
    <desc>Created with Sketch.</desc>
    <g id="页面-1" stroke="none" stroke-width="1" fill="none" fill-rule="evenodd">
        <path d="M0.872547475,28.3420871 C1.35462996,28.3420871 1.74509495,28.7325521 1.74509495,29.2146346 L1.74509495,32.3348643 C1.74509495,33.3937007 2.60629931,34.254905 3.66513567,34.254905 L6.78972818,34.254905 C7.27181066,34.254905 7.66227565,34.64537 7.66227565,35.1274525 C7.66227565,35.609535 7.27181066,36 6.78972818,36 L3.66513567,36 C1.64431572,36 4.98268093e-13,34.3556843 4.98268093e-13,32.3348643 L4.98268093e-13,29.2146346 C4.98268093e-13,28.7325521 0.390464995,28.3420871 0.872547475,28.3420871 Z M35.1449035,28.3420871 C35.626986,28.3420871 36.0174509,28.7325521 36.0174509,29.2146346 L36.0174509,32.3348643 C36.0174509,34.3556843 34.3735715,36 32.3523153,36 L29.2277228,36 C28.7456403,36 28.3551753,35.609535 28.3551753,35.1274525 C28.3551753,34.64537 28.7456403,34.254905 29.2277228,34.254905 L32.3523153,34.254905 C33.4111516,34.254905 34.272356,33.3937007 34.272356,32.3348643 L34.272356,29.2146346 C34.272356,28.7325521 34.662821,28.3420871 35.1449035,28.3420871 Z M17.9705515,4.50758026 C21.5846432,4.50758026 24.5146576,8.06321122 24.5146576,12.4495074 C24.5146576,15.6281978 22.9759201,18.3701783 20.7531054,19.6392986 L20.7531054,19.6392986 L20.7531054,20.6924634 C25.3557934,21.6265254 28.7076845,24.8811275 28.7076845,28.4590084 L28.7076845,28.4590084 L7.24607051,28.4590084 C7.24607051,24.9317353 10.6245743,21.7185792 15.1674928,20.7334731 L15.1674928,20.7334731 L15.1674928,19.6275192 C12.9560212,18.3531636 11.4264455,15.6181635 11.4264455,12.4495074 C11.4264455,8.06321122 14.3564599,4.50758026 17.9705515,4.50758026 Z M6.78972818,2.84217094e-14 C7.27181066,2.84217094e-14 7.66227565,0.390464995 7.66227565,0.872547475 C7.66227565,1.35462996 7.27181066,1.74509495 6.78972818,1.74509495 L3.66513567,1.74509495 C2.60629931,1.74509495 1.74509495,2.60629931 1.74509495,3.66513567 L1.74509495,6.78536544 C1.74509495,7.26744792 1.35419368,7.65791291 0.872547475,7.65791291 C0.390464995,7.65791291 4.98712183e-13,7.26744792 4.98712183e-13,6.78536544 L4.98712183e-13,3.66513567 C4.98712183e-13,1.64431572 1.64431572,2.84217094e-14 3.66513567,2.84217094e-14 L6.78972818,2.84217094e-14 Z M32.3523153,2.84217094e-14 C34.3735715,2.84217094e-14 36.0174509,1.64431572 36.0174509,3.66513567 L36.0174509,6.78536544 C36.0174509,7.26744792 35.626986,7.65791291 35.1449035,7.65791291 C34.662821,7.65791291 34.272356,7.26744792 34.272356,6.78536544 L34.272356,3.66513567 C34.272356,2.60629931 33.4111516,1.74509495 32.3523153,1.74509495 L29.2277228,1.74509495 C28.7456403,1.74509495 28.3551753,1.35462996 28.3551753,0.872547475 C28.3551753,0.390464996 28.7456403,2.84217094e-14 29.2277228,2.84217094e-14 L32.3523153,2.84217094e-14 Z" id="人脸识别" fill="#FFFFFF" fill-rule="nonzero"></path>
    </g>
</svg>