<?xml version="1.0" encoding="UTF-8"?>
<svg width="34px" height="38px" viewBox="0 0 34 38" version="1.1" xmlns="http://www.w3.org/2000/svg" xmlns:xlink="http://www.w3.org/1999/xlink">
    <!-- Generator: Sketch 64 (93537) - https://sketch.com -->
    <title>人脸进出识别</title>
    <desc>Created with Sketch.</desc>
    <g id="页面-1" stroke="none" stroke-width="1" fill="none" fill-rule="evenodd">
        <g id="人脸进出识别" transform="translate(-2.000000, 0.000000)">
            <path d="M19,0.692820323 L3.14551733,9.84641016 L3.14551733,28.1535898 L19,37.3071797 L34.8544827,28.1535898 L34.8544827,9.84641016 L19,0.692820323 Z" id="多边形" stroke="#1DAEFF" stroke-width="1.2"></path>
            <path d="M11.61082,22.078825 C11.9296428,22.078825 12.1918726,22.3211283 12.2234059,22.6316316 L12.226585,22.69459 L12.226585,25.773415 L15.30541,25.773415 C15.6242328,25.773415 15.8864626,26.0157183 15.9179959,26.3262216 L15.921175,26.38918 C15.921175,26.7080027 15.6788717,26.9702325 15.3683684,27.0017658 L15.30541,27.0049449 L11.61082,27.0049449 C11.2919973,27.0049449 11.0297675,26.7626416 10.9982342,26.4521383 L10.9950551,26.38918 L10.9950551,22.69459 C10.9950551,22.3545124 11.2707424,22.078825 11.61082,22.078825 Z M26.38918,22.078825 C26.7080027,22.078825 26.9702325,22.3211283 27.0017658,22.6316316 L27.0049449,22.69459 L27.0049449,26.38918 C27.0049449,26.7080027 26.7626416,26.9702325 26.4521383,27.0017658 L26.38918,27.0049449 L22.69459,27.0049449 C22.3545124,27.0049449 22.078825,26.7292576 22.078825,26.38918 C22.078825,26.0703572 22.3211283,25.8081274 22.6316316,25.7765941 L22.69459,25.773415 L25.773415,25.773415 L25.773415,22.69459 C25.773415,22.3757672 26.0157183,22.1135374 26.3262216,22.0820041 L26.38918,22.078825 Z M19,12.637095 C21.9003989,12.637095 24.2476161,15.1745031 24.5162451,18.3842865 L26.38918,18.384235 C26.7292576,18.384235 27.0049449,18.6599224 27.0049449,19 C27.0049449,19.3188228 26.7626416,19.5810525 26.4521383,19.6125859 L26.38918,19.615765 L24.5162451,19.6157135 C24.2476161,22.8254969 21.9003989,25.362905 19,25.362905 C16.0996011,25.362905 13.7523839,22.8254969 13.4837549,19.6157135 L11.61082,19.615765 C11.2707424,19.615765 10.9950551,19.3400776 10.9950551,19 C10.9950551,18.6811772 11.2373584,18.4189475 11.5478617,18.3874141 L11.61082,18.384235 L13.4837549,18.3842865 C13.7523839,15.1745031 16.0996011,12.637095 19,12.637095 Z M23.2796462,19.6159306 L14.7203538,19.6159306 C14.9773404,22.1741798 16.8147101,24.131375 19,24.131375 C21.1852899,24.131375 23.0226596,22.1741798 23.2796462,19.6159306 Z M21.1624854,21.153482 C21.3574248,21.4321421 21.2895557,21.8160703 21.0108956,22.0110096 C20.3621504,22.4648456 19.6886046,22.6993519 19.0002463,22.6993519 C18.3075044,22.6993519 17.6432656,22.4617353 17.0207994,22.0016239 C16.7473229,21.7994769 16.6894989,21.4139079 16.8916459,21.1404314 C17.0937929,20.8669549 17.4793619,20.8091309 17.7528383,21.0112779 C18.1714261,21.3206875 18.5827289,21.4678219 19.0002463,21.4678219 C19.4221149,21.4678219 19.8537445,21.3175428 20.3049578,21.0018922 C20.5836179,20.8069528 20.9675461,20.8748219 21.1624854,21.153482 Z M19,13.868625 C16.8147101,13.868625 14.9773404,15.8258202 14.7203538,18.3840694 L23.2796462,18.3840694 C23.0226596,15.8258202 21.1852899,13.868625 19,13.868625 Z M15.30541,10.9950551 C15.6454876,10.9950551 15.921175,11.2707424 15.921175,11.61082 C15.921175,11.9296428 15.6788717,12.1918726 15.3683684,12.2234059 L15.30541,12.226585 L12.226585,12.226585 L12.226585,15.30541 C12.226585,15.6242328 11.9842817,15.8864626 11.6737784,15.9179959 L11.61082,15.921175 C11.2919973,15.921175 11.0297675,15.6788717 10.9982342,15.3683684 L10.9950551,15.30541 L10.9950551,11.61082 C10.9950551,11.2919973 11.2373584,11.0297675 11.5478617,10.9982342 L11.61082,10.9950551 L15.30541,10.9950551 Z M26.38918,10.9950551 C26.7080027,10.9950551 26.9702325,11.2373584 27.0017658,11.5478617 L27.0049449,11.61082 L27.0049449,15.30541 C27.0049449,15.6454876 26.7292576,15.921175 26.38918,15.921175 C26.0703572,15.921175 25.8081274,15.6788717 25.7765941,15.3683684 L25.773415,15.30541 L25.773415,12.226585 L22.69459,12.226585 C22.3757672,12.226585 22.1135374,11.9842817 22.0820041,11.6737784 L22.078825,11.61082 C22.078825,11.2919973 22.3211283,11.0297675 22.6316316,10.9982342 L22.69459,10.9950551 L26.38918,10.9950551 Z" id="形状结合" fill="#1FAEFF" fill-rule="nonzero"></path>
        </g>
    </g>
</svg>