<?xml version="1.0" encoding="UTF-8"?>
<svg width="22px" height="22px" viewBox="0 0 22 22" version="1.1" xmlns="http://www.w3.org/2000/svg" xmlns:xlink="http://www.w3.org/1999/xlink">
    <!-- Generator: Sketch 64 (93537) - https://sketch.com -->
    <title>进出次数</title>
    <desc>Created with Sketch.</desc>
    <g id="页面-1" stroke="none" stroke-width="1" fill="none" fill-rule="evenodd">
        <path d="M6.12631612,10.5916472 C6.40403437,10.8693654 6.42254892,11.3081322 6.18185977,11.6073236 L6.12631612,11.6691901 L2.85,14.9442973 L9.90519281,14.944375 C10.3259995,14.944375 10.6671307,15.2855062 10.6671307,15.7063129 C10.6671307,16.1008192 10.3673084,16.4252982 9.98309654,16.464317 L9.90519281,16.4682508 L2.859,16.4672973 L6.12631612,19.7349021 C6.40403437,20.0126203 6.42254892,20.4513871 6.18185977,20.7505785 L6.12631612,20.812445 C5.84859788,21.0901632 5.40983111,21.1086778 5.11063972,20.8679886 L5.0487732,20.812445 L0.512192342,16.2779989 C0.367115152,16.1500695 0.271115277,15.9677805 0.256055772,15.762995 C0.255451931,15.7510422 0.254777609,15.739033 0.254386031,15.7270164 C0.254068622,15.7199104 0.253979303,15.7131221 0.253979303,15.7063129 L0.254784341,15.6669209 C0.25562883,15.6485081 0.257137725,15.6301201 0.259311025,15.611796 L0.253979303,15.7063129 C0.253979303,15.6644122 0.257361508,15.6233014 0.263867801,15.5832386 C0.283213842,15.4555445 0.336023738,15.3315203 0.421602101,15.2251411 L0.477145749,15.1632746 L5.0487732,10.5916472 C5.34632846,10.2940919 5.82876086,10.2940919 6.12631612,10.5916472 Z M16.2236217,6.47248546 L16.2854882,6.52802911 L20.8571157,11.0996566 C20.9503871,11.192928 21.0144217,11.3043648 21.0492196,11.4225788 C21.0519999,11.43585 21.0556053,11.4491193 21.058856,11.4625273 C21.0638356,11.4795868 21.067244,11.4966169 21.0700673,11.5137248 C21.0723491,11.5308597 21.0747802,11.5488511 21.0765724,11.5670302 C21.0786607,11.5854229 21.0796957,11.6034406 21.0800946,11.6214698 C21.0801837,11.6284186 21.0802821,11.6355452 21.0802821,11.6426949 L21.0796903,11.6685478 C21.07898,11.6866125 21.0776306,11.7046567 21.0756419,11.7226437 L21.0802821,11.6426949 C21.0802821,11.6970238 21.074596,11.7500247 21.0637863,11.8011348 C21.0611708,11.8086589 21.059302,11.8166514 21.0573028,11.8246179 C21.0208525,11.9776184 20.9374257,12.1121299 20.8235571,12.2130653 L16.2854882,16.7488269 C15.987933,17.0463822 15.5055006,17.0463822 15.2079453,16.7488269 C14.9302271,16.4711087 14.9117125,16.0323419 15.1524017,15.7331505 L15.2079453,15.671284 L18.473,12.4042973 L11.4290686,12.4046328 C11.0082619,12.4046328 10.6671307,12.0635016 10.6671307,11.6426949 C10.6671307,11.2481886 10.9669531,10.9237096 11.3511649,10.8846908 L11.4290686,10.880757 L18.483,10.8802973 L15.2079453,7.60557203 C14.9302271,7.32785379 14.9117125,6.88908702 15.1524017,6.58989564 L15.2079453,6.52802911 C15.4856636,6.25031087 15.9244303,6.23179632 16.2236217,6.47248546 Z M20.5723235,0.971297305 C20.9668298,0.971297305 21.2913088,1.27111967 21.3303276,1.65533149 L21.3342614,1.73323521 L21.3342614,5.54292476 C21.3342614,5.96373144 20.9931302,6.30486266 20.5723235,6.30486266 C20.1778173,6.30486266 19.8533383,6.0050403 19.8143194,5.62082848 L19.8103856,5.54292476 L19.8099793,2.49476675 L1.52346945,2.49476675 L1.52387582,10.1145522 C1.52387582,10.5090585 1.22405345,10.8335375 0.839841634,10.8725563 L0.761937909,10.8764901 C0.367431639,10.8764901 0.042952635,10.5766678 0.00393379953,10.1924559 L5.54223334e-13,10.1145522 L5.54223334e-13,1.73323521 C5.54223334e-13,1.33872894 0.299822363,1.01424994 0.684034184,0.975231104 L0.761937909,0.971297305 L20.5723235,0.971297305 Z" id="进出次数" fill="#A9BBD1" fill-rule="nonzero"></path>
    </g>
</svg>