<?xml version="1.0" encoding="UTF-8"?>
<svg width="34px" height="38px" viewBox="0 0 34 38" version="1.1" xmlns="http://www.w3.org/2000/svg" xmlns:xlink="http://www.w3.org/1999/xlink">
    <!-- Generator: Sketch 64 (93537) - https://sketch.com -->
    <title>监控信息</title>
    <desc>Created with Sketch.</desc>
    <g id="页面-1" stroke="none" stroke-width="1" fill="none" fill-rule="evenodd">
        <g id="监控信息" transform="translate(-2.000000, 0.000000)">
            <path d="M19,0.692820323 L3.14551733,9.84641016 L3.14551733,28.1535898 L19,37.3071797 L34.8544827,28.1535898 L34.8544827,9.84641016 L19,0.692820323 Z" id="多边形" stroke="#1DAEFF" stroke-width="1.2"></path>
            <path d="M12.2035039,17.2489881 L12.2588192,17.2817113 L22.5502139,24.1428932 L26.1574314,21.9786233 C26.4177692,21.8224218 26.7502854,21.8907995 26.9295327,22.1273938 L26.9655147,22.1806468 C27.1217163,22.4409846 27.0533386,22.7735008 26.8167442,22.9527481 L26.7634912,22.9887301 L23.0499895,25.2168154 C22.7479655,25.3980481 22.3740459,25.4026199 22.0694339,25.233884 L22.0004334,25.19187 L16.0814624,21.2467539 L14.7781241,23.2030463 C14.6810246,23.3486956 14.5249318,23.4426432 14.3531332,23.4617223 L14.2880571,23.4653222 L12.1274624,23.4647539 L12.128437,26.4102587 C12.128437,26.7355475 11.8647384,26.9992461 11.5394497,26.9992461 C11.2344915,26.9992461 10.9836653,26.7674797 10.9535032,26.4704793 L10.9504624,26.4102587 L10.9504624,20.1277275 C10.9504624,19.8024388 11.214161,19.5387402 11.5394497,19.5387402 C11.8444078,19.5387402 12.095234,19.7705066 12.1253961,20.067507 L12.128437,20.1277275 L12.1274624,22.2867539 L13.972674,22.2873476 L15.1014624,20.5927539 L11.6053965,18.2618454 C11.3347399,18.0814077 11.2616031,17.7157235 11.4420408,17.4450669 C11.6104493,17.1924541 11.9402281,17.111903 12.2035039,17.2489881 Z M14.4574165,11.2487286 C14.788836,10.9541127 15.2766135,10.9182849 15.647546,11.1612806 L15.647546,11.1612806 L26.2746198,18.1238569 C26.8708474,18.5145361 26.8650589,19.3904462 26.2636683,19.7731135 L26.2636683,19.7731135 L22.6732293,22.0579598 C22.3453026,22.2666315 21.9251762,22.2621526 21.6016887,22.0465598 L21.6016887,22.0465598 L11.6360564,15.402797 C11.1008897,15.046052 11.0476772,14.2796057 11.5283873,13.8522969 L11.5283873,13.8522969 Z M15.1275603,12.2288581 L12.5006769,14.5636037 L22.1487601,20.9953451 L25.3745258,18.9418998 L15.1275603,12.2288581 Z" id="形状结合" fill="#1FAEFF" fill-rule="nonzero"></path>
        </g>
    </g>
</svg>