<?xml version="1.0" encoding="UTF-8"?>
<svg width="22px" height="22px" viewBox="0 0 22 22" version="1.1" xmlns="http://www.w3.org/2000/svg" xmlns:xlink="http://www.w3.org/1999/xlink">
    <!-- Generator: Sketch 64 (93537) - https://sketch.com -->
    <title>姓名</title>
    <desc>Created with Sketch.</desc>
    <g id="页面-1" stroke="none" stroke-width="1" fill="none" fill-rule="evenodd">
        <path d="M10.842343,10.8764744 C16.1666378,10.8764744 20.4828543,15.1926909 20.4828543,20.5169857 C20.4828543,20.9265479 20.1508386,21.2585635 19.7412765,21.2585635 C19.3317144,21.2585635 18.9996987,20.9265479 18.9996987,20.5169857 C18.9996987,16.0118152 15.3475135,12.35963 10.842343,12.35963 C6.33717237,12.35963 2.68498718,16.0118152 2.68498718,20.5169857 C2.68498718,20.9265479 2.35297149,21.2585635 1.94340938,21.2585635 C1.53384727,21.2585635 1.20183158,20.9265479 1.20183158,20.5169857 C1.20183158,15.1926909 5.51804815,10.8764744 10.842343,10.8764744 Z M10.842343,-3.37507799e-13 C13.4362363,-3.37507799e-13 15.5390023,2.10276603 15.5390023,4.69665939 C15.5390023,7.29055274 13.4362363,9.39331877 10.842343,9.39331877 C8.2484496,9.39331877 6.14568357,7.29055274 6.14568357,4.69665939 C6.14568357,2.10276603 8.2484496,-3.37507799e-13 10.842343,-3.37507799e-13 Z M10.842343,1.4831556 C9.06757382,1.4831556 7.62883916,2.92189025 7.62883916,4.69665939 C7.62883916,6.47142852 9.06757382,7.91016318 10.842343,7.91016318 C12.6171121,7.91016318 14.0558467,6.47142852 14.0558467,4.69665939 C14.0558467,2.92189025 12.6171121,1.4831556 10.842343,1.4831556 Z" id="姓名" fill="#A9BBD1" fill-rule="nonzero"></path>
    </g>
</svg>