<?xml version="1.0" encoding="UTF-8"?>
<svg width="22px" height="22px" viewBox="0 0 22 22" version="1.1" xmlns="http://www.w3.org/2000/svg" xmlns:xlink="http://www.w3.org/1999/xlink">
    <!-- Generator: Sketch 64 (93537) - https://sketch.com -->
    <title>时间</title>
    <desc>Created with Sketch.</desc>
    <g id="页面-1" stroke="none" stroke-width="1" fill="none" fill-rule="evenodd">
        <path d="M10.842343,0.271663704 C16.6413353,0.271663704 21.342343,4.97267139 21.342343,10.7716637 C21.342343,16.570656 16.6413353,21.2716637 10.842343,21.2716637 C5.04335064,21.2716637 0.342342955,16.570656 0.342342955,10.7716637 C0.342342955,4.97267139 5.04335064,0.271663704 10.842343,0.271663704 Z M10.842343,1.73677998 C5.85251202,1.73677998 1.80745923,5.78183276 1.80745923,10.7716637 C1.80745923,15.7614946 5.85251202,19.8065474 10.842343,19.8065474 C15.8321739,19.8065474 19.8772267,15.7614946 19.8772267,10.7716637 C19.8772267,5.78183276 15.8321739,1.73677998 10.842343,1.73677998 Z M10.8464696,4.17864045 C11.225764,4.17864045 11.5377026,4.46697096 11.5751799,4.8363716 L11.5789546,4.91127179 L11.5778313,10.4721939 L15.5049096,14.3990669 C15.7719192,14.6660765 15.7897198,15.0879248 15.5583115,15.3755795 L15.5049096,15.4350605 C15.2378999,15.7020702 14.8160517,15.7198708 14.5283969,15.4884625 L14.4689159,15.4350605 L10.3278136,11.2939582 C10.2100428,11.1761874 10.1365136,11.0224463 10.117921,10.8585582 L10.1132523,10.7758882 L10.1138383,4.91112539 C10.1138787,4.5065447 10.441889,4.17864045 10.8464696,4.17864045 Z" id="时间" fill="#A9BBD1" fill-rule="nonzero"></path>
    </g>
</svg>