<?xml version="1.0" encoding="UTF-8"?>
<svg width="34px" height="38px" viewBox="0 0 34 38" version="1.1" xmlns="http://www.w3.org/2000/svg" xmlns:xlink="http://www.w3.org/1999/xlink">
    <!-- Generator: Sketch 64 (93537) - https://sketch.com -->
    <title>各机柜实时流量统计</title>
    <desc>Created with Sketch.</desc>
    <g id="页面-1" stroke="none" stroke-width="1" fill="none" fill-rule="evenodd">
        <g id="各机柜实时流量统计" transform="translate(-2.000000, 0.000000)">
            <path d="M19,0.692820323 L3.14551733,9.84641016 L3.14551733,28.1535898 L19,37.3071797 L34.8544827,28.1535898 L34.8544827,9.84641016 L19,0.692820323 Z" id="多边形" stroke="#1DAEFF" stroke-width="1.2"></path>
            <path d="M16.6753808,12.598746 C16.9181748,11.777188 18.0546843,11.8200795 18.2649149,12.6108582 L18.2843696,12.7017943 L19.8525241,22.2377183 L21.2480683,19.0083536 C21.4712902,18.4917157 22.1156523,18.3472989 22.5316697,18.6967378 L22.5953644,18.7560341 L24.2632276,20.4737705 L26.1724138,20.473824 C26.6009106,20.473824 26.9533466,20.804354 26.9957273,21.2279166 L27,21.3137992 C27,21.7487106 26.674345,22.1064225 26.2570297,22.1494376 L26.1724138,22.1537743 L23.9173593,22.1537743 C23.727457,22.1537743 23.5443512,22.0875315 23.3979673,21.967755 L23.3279741,21.9034644 L22.2737103,20.8171523 L20.2518496,25.4970576 C19.9331937,26.2345733 18.891274,26.1305979 18.6958003,25.3836267 L18.677644,25.2979939 L17.2373517,16.5420148 L15.7565401,21.5551295 C15.659612,21.8831112 15.3776131,22.1156761 15.0473406,22.1495146 L14.963846,22.1537743 L11.8275862,22.1537743 C11.370523,22.1537743 11,21.7777047 11,21.3137992 C11,20.8788878 11.325655,20.5211758 11.7429703,20.4781607 L11.8275862,20.473824 L14.3474207,20.4737705 L16.6753808,12.598746 Z" id="各机柜试试流量统计" fill="#1DAEFF" fill-rule="nonzero"></path>
        </g>
    </g>
</svg>