<?xml version="1.0" encoding="UTF-8"?>
<svg width="34px" height="38px" viewBox="0 0 34 38" version="1.1" xmlns="http://www.w3.org/2000/svg" xmlns:xlink="http://www.w3.org/1999/xlink">
    <!-- Generator: Sketch 64 (93537) - https://sketch.com -->
    <title>机房当天湿度变化</title>
    <desc>Created with Sketch.</desc>
    <g id="页面-1" stroke="none" stroke-width="1" fill="none" fill-rule="evenodd">
        <g id="机房当天湿度变化" transform="translate(-2.000000, 0.000000)">
            <path d="M19,0.692820323 L3.14551733,9.84641016 L3.14551733,28.1535898 L19,37.3071797 L34.8544827,28.1535898 L34.8544827,9.84641016 L19,0.692820323 Z" id="多边形" stroke="#1DAEFF" stroke-width="1.2"></path>
            <path d="M24.1436321,14.9992657 C24.9327292,14.9992657 25.5724188,14.3595761 25.5724188,13.570479 C25.5724188,12.7813819 24.9327292,12.1416923 24.1436321,12.1416923 C23.354535,12.1416923 22.7148454,12.7813819 22.7148454,13.570479 C22.7148454,14.3595761 23.354535,14.9992657 24.1436321,14.9992657 Z M12.9990959,15.5707804 C13.2032784,15.5707804 13.3919508,15.4618503 13.4940421,15.2850231 C13.5961334,15.1081958 13.5961334,14.8903356 13.4940421,14.7135084 C13.3919508,14.5366811 13.2032784,14.427751 12.9990959,14.427751 C12.683457,14.427751 12.4275812,14.6836269 12.4275812,14.9992657 C12.4275812,15.3149046 12.683457,15.5707804 12.9990959,15.5707804 L12.9990959,15.5707804 Z M26.7154482,13.570479 C26.7154482,14.9908538 25.5640069,16.1422951 24.1436321,16.1422951 C22.7232573,16.1422951 21.5718161,14.9908538 21.5718161,13.570479 C21.5718161,12.1501042 22.7232573,10.9986629 24.1436321,10.9986629 C25.5640069,10.9986629 26.7154482,12.1501042 26.7154482,13.570479 Z M14.7136399,14.9992657 C14.7136399,15.9461822 13.9460124,16.7138098 12.9990959,16.7138098 C12.0521793,16.7138098 11.2845518,15.9461822 11.2845518,14.9992657 C11.2845518,14.0523492 12.0521793,13.2847217 12.9990959,13.2847217 C13.9460124,13.2847217 14.7136399,14.0523492 14.7136399,14.9992657 L14.7136399,14.9992657 Z M18.7142427,14.6712163 L21.9427291,17.9362797 C23.7344276,19.7485527 23.7344276,22.6924248 21.9427291,24.5041264 C21.0917047,25.3701527 19.9284272,25.8579624 18.7142427,25.8579624 C17.5000581,25.8579624 16.3367806,25.3701527 15.4857562,24.5041264 C13.6940577,22.6924248 13.6940577,19.7491242 15.4857562,17.9362797 L18.7142427,14.6712163 Z M22.755423,17.13273 L19.1183035,13.45389 C19.011734,13.3456137 18.8661664,13.2846391 18.7142427,13.2846391 C18.5623189,13.2846391 18.4167513,13.3456137 18.3101818,13.45389 L14.6730623,17.13273 C12.4412975,19.390213 12.4412975,23.050193 14.6730623,25.3082475 C15.7388006,26.3913653 17.1947222,27.0013371 18.7142427,27.0013371 C20.2337631,27.0013371 21.6896847,26.3913653 22.755423,25.3082475 C24.9871878,23.0507645 24.9871878,19.390213 22.755423,17.13273 L22.755423,17.13273 Z M21.0003014,21.2859272 C21.0003014,21.0817447 21.1092314,20.8930722 21.2860587,20.7909809 C21.462886,20.6888897 21.6807461,20.6888897 21.8575734,20.7909809 C22.0344007,20.8930722 22.1433307,21.0817447 22.1433307,21.2859272 C22.1433307,22.1953779 21.7820529,23.0675799 21.1389741,23.7106586 C20.4958953,24.3537374 19.6236934,24.7150153 18.7142427,24.7150153 C18.3986038,24.7150153 18.142728,24.4591394 18.142728,24.1435006 C18.142728,23.8278618 18.3986038,23.5719859 18.7142427,23.5719859 C19.3205431,23.5719859 19.9020111,23.331134 20.3307303,22.9024148 C20.7594495,22.4736957 21.0003014,21.8922277 21.0003014,21.2859272 L21.0003014,21.2859272 Z" fill="#1DAEFF" fill-rule="nonzero"></path>
        </g>
    </g>
</svg>