<?xml version="1.0" encoding="UTF-8"?>
<svg width="34px" height="38px" viewBox="0 0 34 38" version="1.1" xmlns="http://www.w3.org/2000/svg" xmlns:xlink="http://www.w3.org/1999/xlink">
    <!-- Generator: Sketch 64 (93537) - https://sketch.com -->
    <title>机房设备信息</title>
    <desc>Created with Sketch.</desc>
    <g id="页面-1" stroke="none" stroke-width="1" fill="none" fill-rule="evenodd">
        <g id="机房设备信息" transform="translate(-2.000000, 0.000000)">
            <path d="M19,0.692820323 L3.14551733,9.84641016 L3.14551733,28.1535898 L19,37.3071797 L34.8544827,28.1535898 L34.8544827,9.84641016 L19,0.692820323 Z" id="多边形" stroke="#1DAEFF" stroke-width="1.2"></path>
            <g id="服务器_server-3" transform="translate(11.000000, 11.000000)" fill="#1DAEFF" fill-rule="nonzero">
                <path d="M15.4394832,8.9299354 C15.7476367,8.9299354 15.9974444,9.17974315 15.9974444,9.48789663 L15.9974444,9.48789663 L15.9974444,15.4394832 C15.9974444,15.7476367 15.7476367,15.9974444 15.4394832,15.9974444 L15.4394832,15.9974444 L0.560516826,15.9974444 C0.252363343,15.9974444 0.00255558785,15.7476367 0.00255558785,15.4394832 L0.00255558785,15.4394832 L0.00255558785,9.48789663 C0.00255558785,9.17974315 0.252363343,8.9299354 0.560516826,8.9299354 L0.560516826,8.9299354 Z M14.8812244,10.0457091 L1.11832927,10.0457091 L1.11832927,14.8812244 L14.8812244,14.8812244 L14.8812244,10.0457091 Z M3.90828425,11.7197416 C4.11372558,11.7197416 4.28025841,11.8862744 4.28025841,12.0917157 L4.28025841,12.0917157 L4.28025841,12.8356641 C4.28025841,13.0411054 4.11372558,13.2076382 3.90828425,13.2076382 L3.90828425,13.2076382 L3.16433594,13.2076382 C2.95889461,13.2076382 2.79236178,13.0411054 2.79236178,12.8356641 L2.79236178,12.8356641 L2.79236178,12.0917157 C2.79236178,11.8862744 2.95889461,11.7197416 3.16433594,11.7197416 L3.16433594,11.7197416 Z M6.88407752,11.7197416 C7.08951885,11.7197416 7.25605168,11.8862744 7.25605168,12.0917157 L7.25605168,12.0917157 L7.25605168,12.8356641 C7.25605168,13.0411054 7.08951885,13.2076382 6.88407752,13.2076382 L6.88407752,13.2076382 L6.14012921,13.2076382 C5.93468788,13.2076382 5.76815505,13.0411054 5.76815505,12.8356641 L5.76815505,12.8356641 L5.76815505,12.0917157 C5.76815505,11.8862744 5.93468788,11.7197416 6.14012921,11.7197416 L6.14012921,11.7197416 Z M15.4394832,0.00255558785 C15.7476367,0.00255558785 15.9974444,0.252363343 15.9974444,0.560516826 L15.9974444,0.560516826 L15.9974444,6.51210337 C15.9974444,6.82025685 15.7476367,7.0700646 15.4394832,7.0700646 L15.4394832,7.0700646 L0.560516826,7.0700646 C0.252363343,7.0700646 0.00255558785,6.82025685 0.00255558785,6.51210337 L0.00255558785,6.51210337 L0.00255558785,0.560516826 C0.00255558785,0.252363343 0.252363343,0.00255558785 0.560516826,0.00255558785 L0.560516826,0.00255558785 Z M14.8812244,1.11832927 L1.11832927,1.11832927 L1.11832927,5.95384455 L14.8812244,5.95384455 L14.8812244,1.11832927 Z M3.90828425,2.79236178 C4.11372558,2.79236178 4.28025841,2.95889461 4.28025841,3.16433594 L4.28025841,3.16433594 L4.28025841,3.90828425 C4.28025841,4.11372558 4.11372558,4.28025841 3.90828425,4.28025841 L3.90828425,4.28025841 L3.16433594,4.28025841 C2.95889461,4.28025841 2.79236178,4.11372558 2.79236178,3.90828425 L2.79236178,3.90828425 L2.79236178,3.16433594 C2.79236178,2.95889461 2.95889461,2.79236178 3.16433594,2.79236178 L3.16433594,2.79236178 Z M6.88407752,2.79236178 C7.08951885,2.79236178 7.25605168,2.95889461 7.25605168,3.16433594 L7.25605168,3.16433594 L7.25605168,3.90828425 C7.25605168,4.11372558 7.08951885,4.28025841 6.88407752,4.28025841 L6.88407752,4.28025841 L6.14012921,4.28025841 C5.93468788,4.28025841 5.76815505,4.11372558 5.76815505,3.90828425 L5.76815505,3.90828425 L5.76815505,3.16433594 C5.76815505,2.95889461 5.93468788,2.79236178 6.14012921,2.79236178 L6.14012921,2.79236178 Z" id="机房设备信息"></path>
            </g>
        </g>
    </g>
</svg>