<?xml version="1.0" encoding="UTF-8"?>
<svg width="34px" height="38px" viewBox="0 0 34 38" version="1.1" xmlns="http://www.w3.org/2000/svg" xmlns:xlink="http://www.w3.org/1999/xlink">
    <!-- Generator: Sketch 64 (93537) - https://sketch.com -->
    <title>节点统计</title>
    <desc>Created with Sketch.</desc>
    <g id="页面-1" stroke="none" stroke-width="1" fill="none" fill-rule="evenodd">
        <g id="节点统计" transform="translate(-2.000000, 0.000000)">
            <path d="M19,0.692820323 L3.14551733,9.84641016 L3.14551733,28.1535898 L19,37.3071797 L34.8544827,28.1535898 L34.8544827,9.84641016 L19,0.692820323 Z" id="多边形" stroke="#1DAEFF" stroke-width="1.2"></path>
            <g id="服务器_server-3" transform="translate(11.000000, 11.000000)" fill="#1DAEFF" fill-rule="nonzero">
                <path d="M4.09461248,10.4166911 L5.02462926,10.4174887 C5.7435633,10.4174887 6.32635396,11.0002794 6.32635396,11.7192134 L6.32635396,11.7192134 L6.32635396,14.6945842 C6.32635396,15.4135182 5.7435633,15.9963089 5.02462926,15.9963089 L5.02462926,15.9963089 L2.04925852,15.9963089 C1.33033308,15.9963089 0.747533826,15.4135156 0.747533826,14.6945842 L0.747533826,14.6945842 L0.747533826,11.7192134 C0.747533826,11.0002819 1.33033308,10.4174887 2.04925852,10.4174887 L2.04925852,10.4174887 L2.97861248,10.4166911 L2.97861248,8.55769114 L0.933494497,8.55788201 C0.625384769,8.55788201 0.375612484,8.30810973 0.375612484,8 C0.375612484,7.71114713 0.595138906,7.4735674 0.876454302,7.44499827 L0.933494497,7.44211799 L7.44161248,7.44169114 L7.44161248,5.58169114 L6.51231463,5.58251128 C5.83831397,5.58251128 5.28397058,5.07029293 5.21731047,4.41388224 L5.21058993,4.28078658 L5.21058993,1.30541584 C5.21058993,0.586490395 5.79338315,0.00369114172 6.51231463,0.00369114172 L6.51231463,0.00369114172 L9.48768537,0.00369114172 C10.2066169,0.00369114172 10.7894101,0.586490395 10.7894101,1.30541584 L10.7894101,1.30541584 L10.7894101,4.28078658 C10.7894101,4.99972062 10.2066194,5.58251128 9.48768537,5.58251128 L9.48768537,5.58251128 L8.55761248,5.58169114 L8.55761248,7.44169114 L15.0665055,7.44211799 C15.3746152,7.44211799 15.6243875,7.69189027 15.6243875,8 C15.6243875,8.28885287 15.4048611,8.5264326 15.1235457,8.55500173 L15.0665055,8.55788201 L13.0206125,8.55769114 L13.0206125,10.4166911 L13.9507415,10.4174887 C14.6247421,10.4174887 15.1790855,10.9297071 15.2457456,11.5861178 L15.2524662,11.7192134 L15.2524662,14.6945842 C15.2524662,15.4135182 14.6696755,15.9963089 13.9507415,15.9963089 L13.9507415,15.9963089 L10.9753707,15.9963089 C10.2564367,15.9963089 9.67364604,15.4135182 9.67364604,14.6945842 L9.67364604,14.6945842 L9.67364604,11.7192134 C9.67364604,11.0002794 10.2564367,10.4174887 10.9753707,10.4174887 L10.9753707,10.4174887 L11.9046125,10.4166911 L11.9046125,8.55769114 L4.09461248,8.55769114 L4.09461248,10.4166911 Z M5.02462926,11.5332528 L2.04925852,11.5332528 C1.94654995,11.5332528 1.86329785,11.616504 1.86329785,11.7192134 L1.86329785,11.7192134 L1.86329785,14.6945842 C1.86329785,14.7972936 1.94654995,14.8805448 2.04925852,14.8805448 L2.04925852,14.8805448 L5.02462926,14.8805448 C5.12734385,14.8805448 5.21058993,14.7972987 5.21058993,14.6945842 L5.21058993,14.6945842 L5.21058993,11.7192134 C5.21058993,11.6164988 5.12734385,11.5332528 5.02462926,11.5332528 L5.02462926,11.5332528 Z M13.9507415,11.5332528 L10.9753707,11.5332528 C10.8726562,11.5332528 10.7894101,11.6164988 10.7894101,11.7192134 L10.7894101,11.7192134 L10.7894101,14.6945842 C10.7894101,14.7972987 10.8726562,14.8805448 10.9753707,14.8805448 L10.9753707,14.8805448 L13.9507415,14.8805448 C14.0534561,14.8805448 14.1367021,14.7972987 14.1367021,14.6945842 L14.1367021,14.6945842 L14.1367021,11.7192134 C14.1367021,11.6164988 14.0534561,11.5332528 13.9507415,11.5332528 L13.9507415,11.5332528 Z M9.48768537,1.11945517 L6.51231463,1.11945517 C6.40960519,1.11945517 6.32635396,1.20270726 6.32635396,1.30541584 L6.32635396,1.30541584 L6.32635396,4.28078658 C6.32635396,4.38350116 6.40960004,4.46674725 6.51231463,4.46674725 L6.51231463,4.46674725 L9.48768537,4.46674725 C9.59039996,4.46674725 9.67364604,4.38350116 9.67364604,4.28078658 L9.67364604,4.28078658 L9.67364604,1.30541584 C9.67364604,1.20270726 9.59039481,1.11945517 9.48768537,1.11945517 L9.48768537,1.11945517 Z" id="节点统计"></path>
            </g>
        </g>
    </g>
</svg>