<?xml version="1.0" encoding="UTF-8"?>
<svg width="80px" height="80px" viewBox="0 0 80 80" version="1.1" xmlns="http://www.w3.org/2000/svg" xmlns:xlink="http://www.w3.org/1999/xlink">
    <!-- Generator: Sketch 64 (93537) - https://sketch.com -->
    <title>物理机数</title>
    <desc>Created with Sketch.</desc>
    <g id="页面-1" stroke="none" stroke-width="1" fill="none" fill-rule="evenodd">
        <g id="物理机数" transform="translate(0.000000, -0.000000)">
            <polygon id="矩形" fill="#1DAEFF" opacity="0.100000001" points="4.70588235 4.70588235 75.2941176 4.70588235 75.2941176 75.2941176 4.70588235 75.2941176"></polygon>
            <path d="M30.0055876,57.4902217 C29.4536115,57.4902217 29.0061464,57.0427566 29.0061464,56.4907804 C29.0061464,55.981264 29.3874184,55.5607984 29.8802198,55.4991262 L30.0055876,55.4913392 L34.0031753,55.4907783 L34.0031753,48.4947783 L23.009499,48.4952505 C21.4127108,48.4952505 20.1074605,47.2470284 20.0162651,45.6731011 L20.0111753,45.4969268 L20.0111753,25.5081021 C20.0111753,23.8521736 21.3535705,22.5097783 23.009499,22.5097783 L23.009499,22.5097783 L56.990501,22.5097783 C58.6464295,22.5097783 59.9888247,23.8521736 59.9888247,25.5081021 L59.9888247,25.5081021 L59.9888247,45.4969268 C59.9888247,47.1528553 58.6464295,48.4952505 56.990501,48.4952505 L56.990501,48.4952505 L45.9961753,48.4947783 L45.9961753,55.4907783 L49.9944124,55.4913392 C50.5463885,55.4913392 50.9938536,55.9388043 50.9938536,56.4907804 C50.9938536,57.0002969 50.6125816,57.4207625 50.1197802,57.4824346 L49.9944124,57.4902217 L30.0055876,57.4902217 Z M43.9969654,48.4948507 L36.0022351,48.4948507 L36.0022351,55.4905396 L43.9969654,55.4905396 L43.9969654,48.4948507 Z M56.990501,24.5086608 L23.009499,24.5086608 C22.4575228,24.5086608 22.0100577,24.9561259 22.0100577,25.5081021 L22.0100577,25.5081021 L22.0100577,45.4969268 C22.0100577,46.048903 22.4575228,46.496368 23.009499,46.496368 L23.009499,46.496368 L56.990501,46.496368 C57.5424772,46.496368 57.9899423,46.048903 57.9899423,45.4969268 L57.9899423,45.4969268 L57.9899423,25.5081021 C57.9899423,24.9561259 57.5424772,24.5086608 56.990501,24.5086608 L56.990501,24.5086608 Z M41.9988825,41.4991619 C42.5508586,41.4991619 42.9983237,41.9466269 42.9983237,42.4986031 C42.9983237,43.0081195 42.6170517,43.4285851 42.1242503,43.4902573 L41.9988825,43.4980443 L38.0011175,43.4980443 C37.4491414,43.4980443 37.0016763,43.0505792 37.0016763,42.4986031 C37.0016763,41.9890866 37.3829483,41.568621 37.8757497,41.5069489 L38.0011175,41.4991619 L41.9988825,41.4991619 Z" id="机柜区-物理机数" fill="#1DAEFF" fill-rule="nonzero"></path>
            <rect id="矩形" stroke="#1DAEFF" opacity="0.05" x="0.5" y="0.5" width="79" height="79"></rect>
            <polygon id="路径" fill="#1DAEFF" points="11.7647059 0 11.7647059 1.17647059 1.17647059 1.17647059 1.17647059 80 0 80 0 0"></polygon>
            <polygon id="路径" fill="#1DAEFF" points="68.2352941 80 68.2352941 78.8235294 78.8235294 78.8235294 78.8235294 7.10542736e-14 80 7.10542736e-14 80 80"></polygon>
        </g>
    </g>
</svg>