<?xml version="1.0" encoding="UTF-8"?>
<svg width="80px" height="80px" viewBox="0 0 80 80" version="1.1" xmlns="http://www.w3.org/2000/svg" xmlns:xlink="http://www.w3.org/1999/xlink">
    <!-- Generator: Sketch 64 (93537) - https://sketch.com -->
    <title>交换机数</title>
    <desc>Created with Sketch.</desc>
    <g id="页面-1" stroke="none" stroke-width="1" fill="none" fill-rule="evenodd">
        <g id="交换机数" transform="translate(0.000000, -0.000000)">
            <polygon id="矩形" fill="#1DAEFF" opacity="0.100000001" points="4.70588235 4.70588235 75.2941176 4.70588235 75.2941176 75.2941176 4.70588235 75.2941176"></polygon>
            <path d="M59.059319,42.8588978 C59.5856275,42.8588978 60.0122849,43.2855552 60.0122849,43.8118638 L60.0122849,43.8118638 L60.0122849,59.059319 C60.0122849,59.5856275 59.5856275,60.0122849 59.059319,60.0122849 L59.059319,60.0122849 L20.940681,60.0122849 C20.4143725,60.0122849 19.9877151,59.5856275 19.9877151,59.059319 L19.9877151,59.059319 L19.9877151,43.8118638 C19.9877151,43.2855552 20.4143725,42.8588978 20.940681,42.8588978 L20.940681,42.8588978 Z M58.1059718,44.7640674 L21.8928846,44.7640674 L21.8928846,58.1059718 L58.1059718,58.1059718 L58.1059718,44.7640674 Z M29.5173746,49.5296595 C30.0436977,49.5296595 30.4703405,49.9563023 30.4703405,50.4826254 L30.4703405,50.4826254 L30.4703405,52.3885573 C30.4703405,52.9148804 30.0436977,53.3415233 29.5173746,53.3415233 L29.5173746,53.3415233 L27.6114427,53.3415233 C27.0851196,53.3415233 26.6584767,52.9148804 26.6584767,52.3885573 L26.6584767,52.3885573 L26.6584767,50.4826254 C26.6584767,49.9563023 27.0851196,49.5296595 27.6114427,49.5296595 L27.6114427,49.5296595 Z M37.1411022,49.5296595 C37.6674253,49.5296595 38.0940681,49.9563023 38.0940681,50.4826254 L38.0940681,50.4826254 L38.0940681,52.3885573 C38.0940681,52.9148804 37.6674253,53.3415233 37.1411022,53.3415233 L37.1411022,53.3415233 L35.2351703,53.3415233 C34.7088472,53.3415233 34.2822043,52.9148804 34.2822043,52.3885573 L34.2822043,52.3885573 L34.2822043,50.4826254 C34.2822043,49.9563023 34.7088472,49.5296595 35.2351703,49.5296595 L35.2351703,49.5296595 Z M59.059319,19.9877151 C59.5856275,19.9877151 60.0122849,20.4143725 60.0122849,20.940681 L60.0122849,20.940681 L60.0122849,36.1881362 C60.0122849,36.7144448 59.5856275,37.1411022 59.059319,37.1411022 L59.059319,37.1411022 L20.940681,37.1411022 C20.4143725,37.1411022 19.9877151,36.7144448 19.9877151,36.1881362 L19.9877151,36.1881362 L19.9877151,20.940681 C19.9877151,20.4143725 20.4143725,19.9877151 20.940681,19.9877151 L20.940681,19.9877151 Z M58.1059718,21.8928846 L21.8928846,21.8928846 L21.8928846,35.2347891 L58.1059718,35.2347891 L58.1059718,21.8928846 Z M29.5173746,26.6584767 C30.0436977,26.6584767 30.4703405,27.0851196 30.4703405,27.6114427 L30.4703405,27.6114427 L30.4703405,29.5173746 C30.4703405,30.0436977 30.0436977,30.4703405 29.5173746,30.4703405 L29.5173746,30.4703405 L27.6114427,30.4703405 C27.0851196,30.4703405 26.6584767,30.0436977 26.6584767,29.5173746 L26.6584767,29.5173746 L26.6584767,27.6114427 C26.6584767,27.0851196 27.0851196,26.6584767 27.6114427,26.6584767 L27.6114427,26.6584767 Z M37.1411022,26.6584767 C37.6674253,26.6584767 38.0940681,27.0851196 38.0940681,27.6114427 L38.0940681,27.6114427 L38.0940681,29.5173746 C38.0940681,30.0436977 37.6674253,30.4703405 37.1411022,30.4703405 L37.1411022,30.4703405 L35.2351703,30.4703405 C34.7088472,30.4703405 34.2822043,30.0436977 34.2822043,29.5173746 L34.2822043,29.5173746 L34.2822043,27.6114427 C34.2822043,27.0851196 34.7088472,26.6584767 35.2351703,26.6584767 L35.2351703,26.6584767 Z" id="机柜区-交换机数" fill="#1DAEFF" fill-rule="nonzero"></path>
            <rect id="矩形" stroke="#1DAEFF" opacity="0.05" x="0.5" y="0.5" width="79" height="79"></rect>
            <polygon id="路径" fill="#1DAEFF" points="11.7647059 0 11.7647059 1.17647059 1.17647059 1.17647059 1.17647059 80 0 80 0 0"></polygon>
            <polygon id="路径" fill="#1DAEFF" points="68.2352941 80 68.2352941 78.8235294 78.8235294 78.8235294 78.8235294 7.10542736e-14 80 7.10542736e-14 80 80"></polygon>
        </g>
    </g>
</svg>