<?xml version="1.0" encoding="UTF-8"?>
<svg width="80px" height="80px" viewBox="0 0 80 80" version="1.1" xmlns="http://www.w3.org/2000/svg" xmlns:xlink="http://www.w3.org/1999/xlink">
    <!-- Generator: Sketch 64 (93537) - https://sketch.com -->
    <title>虚拟机数</title>
    <desc>Created with Sketch.</desc>
    <g id="页面-1" stroke="none" stroke-width="1" fill="none" fill-rule="evenodd">
        <g id="虚拟机数" transform="translate(0.000000, -0.000000)">
            <polygon id="矩形" fill="#1DAEFF" opacity="0.100000001" points="4.70588235 4.70588235 75.2941176 4.70588235 75.2941176 75.2941176 4.70588235 75.2941176"></polygon>
            <path d="M49.2946276,48.4289 C49.8118659,48.4289 50.2311704,48.8482045 50.2311704,49.3654428 L50.2311704,49.3654428 L50.2311704,54.9846996 C50.2311704,55.5019379 49.8118659,55.9212424 49.2946276,55.9212424 L49.2946276,55.9212424 L30.5637715,55.9212424 C30.0465332,55.9212424 29.6272287,55.5019379 29.6272287,54.9846996 L29.6272287,54.9846996 L29.6272287,49.3654428 C29.6272287,48.8482045 30.0465332,48.4289 30.5637715,48.4289 L30.5637715,48.4289 Z M48.3580848,50.3019856 L31.5003143,50.3019856 L31.5003143,54.0477822 L48.3580848,54.0477822 L48.3580848,50.3019856 Z M36.4245829,24.1759701 C42.133066,24.8334617 46.9038362,28.7395797 48.7104549,34.1271939 L48.8143684,34.4500621 L50.2798036,34.4505307 C54.5091419,34.4472675 58.146176,36.6847034 59.4567584,40.367561 L59.5529545,40.6536953 C60.8128452,44.6303192 59.3497478,48.9646947 55.9375365,51.3641231 C55.5144332,51.6616446 54.9302514,51.5598404 54.6327299,51.1367371 C54.3352084,50.7136337 54.4370126,50.1294519 54.8601159,49.8319304 C57.603949,47.902498 58.780457,44.4171337 57.7673439,41.2194199 C56.8391318,38.2896812 54.0251052,36.4356882 50.603083,36.3285245 L50.2805262,36.323616 L48.1068103,36.323616 C47.679224,36.323616 47.3059294,36.034014 47.1996556,35.619845 C45.8750642,30.4576661 41.504684,26.6465547 36.2102633,26.036754 C30.9157483,25.4269524 25.7934758,28.1446704 23.3299759,32.8706198 C20.8664817,37.5965583 21.5718892,43.352107 25.1037565,47.3432559 C25.4465324,47.7306061 25.4103977,48.3224902 25.0230475,48.6652661 C24.6356973,49.0080419 24.0438132,48.9719073 23.7010374,48.5845571 C19.6549561,44.0123263 18.8468459,37.4188077 21.6690077,32.0048054 C24.4911768,26.5907893 30.3592253,23.4773858 36.4245829,24.1759701 Z M49.2946276,41.8731004 C49.8118659,41.8731004 50.2311704,42.2924049 50.2311704,42.8096432 C50.2311704,43.2870939 49.8738932,43.6810981 49.4121055,43.738889 L49.2946276,43.746186 L38.0561139,43.746186 C37.5388756,43.746186 37.1195711,43.3268815 37.1195711,42.8096432 C37.1195711,42.3321924 37.4768483,41.9381882 37.938636,41.8803974 L38.0561139,41.8731004 L49.2946276,41.8731004 Z M32.4368571,41.8731004 C32.9540954,41.8731004 33.3733999,42.2924049 33.3733999,42.8096432 C33.3733999,43.2870939 33.0161227,43.6810981 32.5543351,43.738889 L32.4368571,43.746186 L30.5637715,43.746186 C30.0465332,43.746186 29.6272287,43.3268815 29.6272287,42.8096432 C29.6272287,42.3321924 29.9845059,41.9381882 30.4462936,41.8803974 L30.5637715,41.8731004 L32.4368571,41.8731004 Z" id="机柜区-虚拟机数" fill="#1DAEFF" fill-rule="nonzero"></path>
            <rect id="矩形" stroke="#1DAEFF" opacity="0.05" x="0.5" y="0.5" width="79" height="79"></rect>
            <polygon id="路径" fill="#1DAEFF" points="11.7647059 0 11.7647059 1.17647059 1.17647059 1.17647059 1.17647059 80 0 80 0 0"></polygon>
            <polygon id="路径" fill="#1DAEFF" points="68.2352941 80 68.2352941 78.8235294 78.8235294 78.8235294 78.8235294 7.10542736e-14 80 7.10542736e-14 80 80"></polygon>
        </g>
    </g>
</svg>