<?xml version="1.0" encoding="UTF-8"?>
<svg width="34px" height="38px" viewBox="0 0 34 38" version="1.1" xmlns="http://www.w3.org/2000/svg" xmlns:xlink="http://www.w3.org/1999/xlink">
    <!-- Generator: Sketch 64 (93537) - https://sketch.com -->
    <title>网络设备信息</title>
    <desc>Created with Sketch.</desc>
    <g id="页面-1" stroke="none" stroke-width="1" fill="none" fill-rule="evenodd">
        <g id="网络设备信息" transform="translate(-2.000000, 0.000000)">
            <path d="M19,0.692820323 L3.14551733,9.84641016 L3.14551733,28.1535898 L19,37.3071797 L34.8544827,28.1535898 L34.8544827,9.84641016 L19,0.692820323 Z" id="多边形" stroke="#1DAEFF" stroke-width="1.2"></path>
            <path d="M23.4646603,12.116982 C23.753617,12.116982 23.9912821,12.3365873 24.0198615,12.6180039 L24.0227429,12.6750646 L24.0218169,19.557982 L25.6969905,19.5580825 C26.3712228,19.5580825 26.9257747,20.070495 26.99246,20.7271335 L26.9991831,20.8602751 L26.9991831,24.5808254 C26.9991831,25.3000065 26.4161716,25.883018 25.6969905,25.883018 L25.6969905,25.883018 L12.3030095,25.883018 C11.5838284,25.883018 11.0008169,25.3000065 11.0008169,24.5808254 L11.0008169,24.5808254 L11.0008169,20.8602751 C11.0008169,20.141094 11.5838284,19.5580825 12.3030095,19.5580825 L12.3030095,19.5580825 L13.9768169,19.557982 L13.9772571,12.6750646 C13.9772571,12.3668441 14.2271192,12.116982 14.5353397,12.116982 C14.8242964,12.116982 15.0619615,12.3365873 15.0905409,12.6180039 L15.0934222,12.6750646 L15.0928169,19.557982 L22.9058169,19.557982 L22.9065778,12.6750646 C22.9065778,12.3668441 23.1564398,12.116982 23.4646603,12.116982 Z M25.6969905,20.6742476 L12.3030095,20.6742476 C12.2002694,20.6742476 12.116982,20.757535 12.116982,20.8602751 L12.116982,20.8602751 L12.116982,24.5808254 C12.116982,24.6835656 12.2002694,24.7668529 12.3030095,24.7668529 L12.3030095,24.7668529 L25.6969905,24.7668529 C25.7997306,24.7668529 25.883018,24.6835656 25.883018,24.5808254 L25.883018,24.5808254 L25.883018,20.8602751 C25.883018,20.757535 25.7997306,20.6742476 25.6969905,20.6742476 L25.6969905,20.6742476 Z M18.2558899,22.1624677 C18.5641104,22.1624677 18.8139725,22.4123298 18.8139725,22.7205503 C18.8139725,23.009507 18.5943672,23.2471721 18.3129506,23.2757515 L18.2558899,23.2786328 L15.2794497,23.2786328 C14.9712293,23.2786328 14.7213672,23.0287707 14.7213672,22.7205503 C14.7213672,22.4315936 14.9409725,22.1939284 15.222389,22.165349 L15.2794497,22.1624677 L18.2558899,22.1624677 Z" fill="#1DAEFF" fill-rule="nonzero"></path>
        </g>
    </g>
</svg>